<?xml version="1.0" encoding="UTF-8" standalone="no"?>
<svg
   xmlns:dc="http://purl.org/dc/elements/1.1/"
   xmlns:cc="http://creativecommons.org/ns#"
   xmlns:rdf="http://www.w3.org/1999/02/22-rdf-syntax-ns#"
   xmlns:svg="http://www.w3.org/2000/svg"
   xmlns="http://www.w3.org/2000/svg"
   version="1.1"
   id="svg5455"
   viewBox="0 0 425.19685 425.19685"
   height="120mm"
   width="120mm">
  <defs
     id="defs5457" />
  <metadata
     id="metadata5460">
    <rdf:RDF>
      <cc:Work
         rdf:about="">
        <dc:format>image/svg+xml</dc:format>
        <dc:type
           rdf:resource="http://purl.org/dc/dcmitype/StillImage" />
        <dc:title></dc:title>
      </cc:Work>
    </rdf:RDF>
  </metadata>
  <g
     style="display:inline"
     transform="translate(0,-627.16535)"
     id="layer1">
    <path
       id="path3834-6-6-9-0-4-2-8-7-95-6"
       d="m 199.58129,648.48122 c 11.28075,0.99962 19.38737,83.74049 25.41675,100.79037 l -20.59638,78.87936 14.46125,93.34062 -19.71987,86.76733 c 0,0 9.64087,0.8764 39.43975,10.9556 29.79887,10.079 51.27162,14.8993 51.27162,14.8993 l 22.34912,-79.7559 -16.65225,-96.40807 19.71975,-93.34062 c -4.93112,-12.02037 -16.34737,-93.96874 -24.97837,-91.58774 0,0 -17.09063,-7.44975 -38.56325,-14.89938 -21.47275,-7.44975 -52.14812,-9.64087 -52.14812,-9.64087 z"
       style="fill:#e9ddaf;fill-opacity:1;stroke:#333333;stroke-width:8;stroke-linecap:round;stroke-linejoin:round;stroke-miterlimit:4;stroke-dasharray:none;stroke-opacity:1" />
    <path
       id="path3834-2-6-3-3-9-8-8-6"
       d="m 22.48605,648.97422 c -4.783624,-0.0125 -7.778374,0.21912 -8.271374,0.3835 0,0 13.146624,22.78737 20.596248,48.64224 7.449876,25.85488 10.955626,44.69838 10.955626,44.69838 0,0 -9.64088,22.34912 -14.461376,43.38362 -4.820374,21.0345 -10.078999,40.31612 -10.078999,40.31612 0,0 10.078999,28.046 16.214125,52.58625 6.13512,24.54024 6.57337,42.50724 6.57337,42.50724 0,0 -7.0115,17.967 -13.146621,42.50723 -6.135124,24.5403 -8.764374,53.9009 -8.764374,53.9009 0,0 16.214125,-3.5057 49.956995,2.1911 33.74275,5.6969 56.53012,10.5173 56.53012,10.5173 l 2.62938,-93.34065 -21.47275,-81.50862 28.046,-104.73437 c -3.89175,-27.1345 -15.8945,-52.66775 -24.9785,-78.44124 0,0 -32.42812,-15.77588 -55.2155,-20.158 -14.24212,-2.73888 -27.139746,-3.42963 -35.11237,-3.451 z"
       style="fill:#e9ddaf;fill-opacity:1;stroke:#333333;stroke-width:8;stroke-linecap:round;stroke-linejoin:round;stroke-miterlimit:4;stroke-dasharray:none;stroke-opacity:1" />
    <path
       id="path3834-6-2-4-6-4-93-9-0-5"
       d="m 199.58129,648.48122 c 0,0 -5.69688,6.13512 -38.56325,14.023 -32.86637,7.888 -48.20412,10.079 -48.20412,10.079 9.084,25.77349 21.08675,51.30674 24.9785,78.44124 l -28.046,104.73437 21.47275,81.50862 -2.62938,93.34065 c 0,0 22.34925,-4.8204 42.06913,-10.9555 19.71974,-6.135 28.48412,-11.3937 28.48412,-11.3937 l 19.71987,-85.01445 -14.46125,-95.0935 20.59638,-78.87936 c -6.02938,-17.04988 -14.136,-99.79075 -25.41675,-100.79037 z"
       style="fill:#786721;fill-opacity:1;stroke:#333333;stroke-width:8;stroke-linecap:round;stroke-linejoin:round;stroke-miterlimit:4;stroke-dasharray:none;stroke-opacity:1" />
    <path
       id="path3834-6-6-3-7-6-5-7-2-3"
       d="m 382.75677,645.41372 c 0,0 -42.50724,15.77587 -55.65374,18.40512 -13.14663,2.62938 -36.81037,9.20263 -36.81037,9.20263 8.631,-2.381 20.04725,79.56737 24.97837,91.58774 l -19.71975,93.34062 16.65225,96.40807 -22.34912,79.7559 c 0,0 22.78737,-4.8203 45.57474,-10.079 22.78738,-5.2586 46.45125,-14.023 46.45125,-14.023 0,0 -1.31475,-8.7644 7.44962,-42.9455 8.76438,-34.18098 15.33775,-49.08048 15.33775,-49.08048 0,0 -0.8765,-7.88787 -6.57337,-34.61925 -5.69675,-26.73137 -17.52875,-52.14812 -17.52875,-52.14812 0,0 3.06762,-18.40512 11.832,-41.63074 8.76437,-23.22563 17.96687,-46.88937 17.96687,-46.88937 0,0 -8.32612,-26.73138 -13.1465,-52.14813 -4.82037,-25.41662 -14.46125,-45.13649 -14.46125,-45.13649 z"
       style="fill:#786721;fill-opacity:1;stroke:#333333;stroke-width:7.99999952;stroke-linecap:round;stroke-linejoin:round;stroke-miterlimit:4;stroke-dasharray:none;stroke-opacity:1" />
    <path
       id="path10829-5-9-9-3-3"
       d="m 46.3393,740.05159 92.02599,8.32612 87.2055,-1.75287 90.27311,15.33762 95.0935,-21.91087"
       style="fill:none;stroke:#333333;stroke-width:8;stroke-linecap:round;stroke-linejoin:round;stroke-miterlimit:4;stroke-dasharray:none;stroke-opacity:1" />
    <path
       id="path10831-0-4-3-9-2"
       d="m 21.798926,823.75133 88.520244,29.36075 94.65537,-27.60788 91.14949,29.799 85.01449,-26.73137"
       style="fill:none;stroke:#333333;stroke-width:8;stroke-linecap:round;stroke-linejoin:round;stroke-miterlimit:4;stroke-dasharray:none;stroke-opacity:1" />
    <path
       id="path10833-6-10-3-9-2"
       d="m 44.19142,918.84482 87.2055,15.77588 87.64374,-15.77588 93.34062,32.86648 92.46424,-36.37223"
       style="fill:none;stroke:#333333;stroke-width:8;stroke-linecap:round;stroke-linejoin:round;stroke-miterlimit:4;stroke-dasharray:none;stroke-opacity:1" />
    <rect
       y="682.7616"
       x="172.7348"
       height="118.2397"
       width="242.24718"
       id="rect6110-8-9"
       style="color:#000000;display:inline;overflow:visible;visibility:visible;fill:#d41112;fill-opacity:1;fill-rule:nonzero;stroke:none;stroke-width:8;marker:none;enable-background:accumulate" />
    <g
       style="fill:#ffffff;fill-opacity:1"
       id="g4027-0-0-7"
       transform="matrix(1.2499999,0,0,1.2499999,2138.7327,1231.7385)">
      <path
         style="fill:#ffffff;fill-opacity:1"
         id="path3369-5-4-5-6-0-8-8-0-4-7-6"
         d="m -1473.3275,-426.88513 c 6.1244,0.49141 12.9677,2.11124 16.6533,7.49856 3.085,4.24068 3.1487,9.7099 2.7028,14.72413 -0.01,1.21941 -1.5289,1.67444 -2.5208,1.71084 -3.3488,0.009 -6.725,0.24568 -10.0557,-0.17292 -2.7209,-1.43784 -0.6279,-5.44192 -2.5207,-7.53497 -0.9646,-1.47423 -2.7574,-1.83823 -4.2953,-2.38424 -0.064,-4.6138 -0.1274,-9.22759 0.036,-13.8414 z" />
      <path
         style="fill:#ffffff;fill-opacity:1"
         id="path3377-7-0-3-3-0-0-8-89-6-79-1"
         d="m -1541.4515,-426.06611 c 10.2559,-0.22751 20.5209,0.0273 30.7859,-0.10921 1.547,0.11831 3.5582,-0.48231 4.4409,1.23763 0.4732,4.14969 0.1183,8.35397 0.2002,12.53097 -12.1214,-0.19109 -24.2793,0.4368 -36.3826,-0.35492 -0.4732,-4.04957 -0.5642,-8.18107 -0.1546,-12.23975 0.273,-0.26391 0.8281,-0.79172 1.1102,-1.06472 z" />
      <path
         style="fill:#ffffff;fill-opacity:1"
         id="path3387-7-2-0-6-8-5-5-2-1-0-9"
         d="m -1491.992,-421.85273 c 3.9495,-3.64917 9.5188,-4.66839 14.715,-4.9323 -0.091,4.56831 0.055,9.1457 -0.082,13.7231 -3.2488,0.66432 -5.2872,3.66736 -5.2417,6.89793 -0.027,9.70082 -0.082,19.41982 0.045,29.12972 0.082,3.23967 2.1021,5.90603 5.2599,6.74324 0.018,4.4591 -0.036,8.9273 0,13.3955 -5.724,-0.0455 -11.9122,-1.52884 -15.8616,-5.94244 -2.8484,-3.04856 -3.7311,-7.36204 -3.8039,-11.40254 0.01,-11.85754 0,-23.71509 0,-35.56355 0.036,-4.44089 1.5288,-9.07288 4.9687,-12.04866 z" />
      <path
         style="fill:#ffffff;fill-opacity:1"
         id="path3389-0-1-6-4-8-4-8-53-1-2-4"
         d="m -1445.2899,-425.6748 c 2.7847,-0.63702 5.6513,-0.49142 8.4905,-0.48231 9.1002,0.0546 18.1913,-0.0546 27.2915,0.0546 1.3832,4.42269 0.4914,9.1457 0.6552,13.7049 -10.2468,0.0182 -20.4845,-0.0273 -30.7222,0.0182 -1.9111,0.0182 -3.813,-0.19111 -5.6876,-0.48232 -0.3368,-4.268 -0.3276,-8.55419 -0.027,-12.81307 z" />
      <path
         style="fill:#ffffff;fill-opacity:1"
         id="path3407-0-6-8-7-2-5-7-2-9-3-1"
         d="m -1525.1804,-407.93852 c 5.542,-0.009 11.0931,-0.0819 16.6351,0.0273 -5.5693,10.84743 -11.2478,21.62204 -16.9627,32.3876 -5.4692,-0.0728 -10.9384,0.0182 -16.4076,-0.0637 5.3418,-10.90202 11.2023,-21.54925 16.7352,-32.3512 z" />
      <path
         style="fill:#ffffff;fill-opacity:1"
         id="path3409-8-0-3-9-7-2-6-5-2-2-0"
         d="m -1428.1269,-407.62912 c 5.5602,-0.78263 11.3116,-0.11831 16.9446,-0.3276 -5.6694,10.76554 -11.3753,21.52195 -16.9173,32.36028 -5.5602,0.0455 -11.1204,0.0546 -16.6806,0.0364 5.542,-10.69273 11.1295,-21.36725 16.6533,-32.06908 z" />
      <path
         style="fill:#ffffff;fill-opacity:1"
         id="path3413-2-7-8-2-2-2-4-9-4-8-73"
         d="m -1477.7047,-393.0415 c 0.082,-1.27403 1.1011,-2.09304 2.3569,-1.86555 6.3156,-0.13649 12.6311,-0.1092 18.9466,-0.0273 0.9828,-0.0273 2.6027,0.41861 2.4662,1.71084 0.2548,6.31553 0,12.64929 0.1001,18.98301 0.1365,4.6684 -1.5198,9.5916 -5.178,12.65836 -3.9222,3.46717 -9.3095,4.57741 -14.4056,4.69569 0.018,-4.45908 0,-8.90909 0,-13.35909 1.7654,-0.91 4.1406,-1.53792 4.8413,-3.63096 0.8463,-2.43884 0.4004,-5.07792 0.5369,-7.59864 -3.0759,0.0455 -6.1609,0.0637 -9.2367,-0.0182 -0.8645,-3.77661 -0.8281,-7.72609 -0.4277,-11.54817 z" />
      <path
         style="fill:#ffffff;fill-opacity:1"
         id="path3417-4-0-2-5-1-9-3-5-4-7-5"
         d="m -1544.2817,-371.13734 c 11.8121,0.0455 23.615,0.0364 35.418,0.009 1.4378,-0.0637 2.8574,0.24569 4.2497,0.6006 0.1456,3.80388 0.4186,7.65326 0.01,11.44804 -0.3003,2.06576 -2.7664,1.50153 -4.2589,1.66533 -11.6664,-0.13649 -23.3328,0.22751 -34.9811,-0.2002 -0.9373,-4.45 -0.4095,-9.01829 -0.4368,-13.52288 z" />
      <path
         style="fill:#ffffff;fill-opacity:1"
         id="path3419-6-3-5-8-1-2-3-6-2-1-0"
         d="m -1446.7459,-371.13734 c 13.0861,0.28209 26.2177,-0.43682 39.2765,0.37309 0.091,4.32259 0.1183,8.65428 -0.027,12.98599 -4.2862,0.60972 -8.627,0.273 -12.9314,0.35489 -8.6725,-0.0637 -17.345,0.13651 -26.0084,-0.1274 -0.6643,-4.5046 -0.3731,-9.06379 -0.3094,-13.58657 z" />
    </g>
    <g
       style="fill:#333333;fill-opacity:1"
       transform="matrix(0.61336934,0,0,0.61336934,1564.8875,1305.6999)"
       id="g5284-8-0">
      <path
         style="display:inline;fill:#333333;fill-opacity:1;stroke:#ffffff;stroke-width:6.40000057;stroke-linecap:round;stroke-linejoin:round;stroke-miterlimit:4;stroke-dasharray:none;stroke-opacity:1"
         d="m -2168.2849,-1022.6143 c -27.2375,-0.01 -54.4994,10.3592 -75.2668,31.1266 -37.2521,37.2521 -40.9881,95.28272 -11.4183,136.83179 l -24.3069,24.33816 25.089,25.05766 24.3069,-24.30688 c 41.549,29.56985 99.5797,25.83383 136.8317,-11.41829 41.5349,-41.53482 41.5349,-108.93634 0,-150.47114 -20.7674,-20.7674 -47.9979,-31.1524 -75.2356,-31.1579 z m -2.1272,17.7375 c 23.4009,-0.5521 46.9714,8.1179 64.8184,25.9649 34.6123,34.61232 34.6436,90.76981 0.031,125.38218 -34.6124,34.61237 -90.8324,34.61237 -125.4448,0 -34.6124,-34.61236 -34.6124,-90.80114 0,-125.41348 16.7653,-16.7654 38.6124,-25.4151 60.5951,-25.9336 z"
         id="path1736-2-7-5-1-3-3" />
      <path
         style="display:inline;fill:#333333;fill-opacity:1;stroke:#ffffff;stroke-width:6.40000057;stroke-linecap:round;stroke-linejoin:round;stroke-miterlimit:4;stroke-dasharray:none;stroke-opacity:1"
         d="m -2279.2769,-830.31775 c 0,0 -19.2927,-5.79626 -26.5905,1.50157 l -83.2753,83.27532 c -7.843,7.84303 -7.843,20.46809 0,28.31111 l 21.8355,21.8668 c 7.843,7.84305 20.4681,7.84305 28.3111,0 l 83.3066,-83.2753 c 7.298,-7.29799 1.5016,-26.62184 1.5016,-26.62184 z"
         id="path1736-6-1-5-2-1-8-0" />
    </g>
  </g>
  <g
     id="layer5">
    <g
       transform="matrix(1.0624677,0,0,1.0624677,-24.014179,-15.890403)"
       id="g5971">
      <g
         transform="matrix(0.92591663,0,0,0.92591663,21.329284,24.273852)"
         id="g5982">
        <path
           style="display:inline;fill:#ffffff;fill-opacity:1;fill-rule:evenodd;stroke:none"
           d="m 251.50876,189.60049 7.9359,39.12423 c -4.07084,2.44892 -7.88916,5.27507 -11.40659,8.42978 -1.75864,1.57731 -3.44109,3.23704 -5.04328,4.97274 -1.06808,1.15713 -2.10107,2.34778 -3.09517,3.57081 -1.49105,1.83448 -2.89591,3.74185 -4.21028,5.71462 -0.43812,0.65762 -0.86602,1.32159 -1.28356,1.99364 l 0,0 c -0.41726,0.67148 -0.82586,1.34911 -1.22218,2.0346 l 0,0 c -1.98263,3.4298 -3.70046,7.03183 -5.12519,10.77843 l 0,0.002 c -0.0756,0.19879 -0.14458,0.40123 -0.21849,0.60082 -0.48358,1.30529 -0.93814,2.62373 -1.3496,3.96226 -0.23722,0.77167 -0.46329,1.54838 -0.67591,2.33048 -0.42533,1.56421 -0.79992,3.1487 -1.12426,4.75199 -0.32434,1.60328 -0.59722,3.2247 -0.81707,4.86349 -0.43962,3.27758 -0.66683,6.62247 -0.66683,10.02059 0,1.14575 0.0264,2.28534 0.0774,3.41833 0.2563,5.66472 1.14534,11.163 2.59672,16.42938 l 0,0.002 c 0.29011,1.05258 0.6033,2.09578 0.93765,3.12931 l 0,0.002 c 0.33441,1.03353 0.69213,2.05896 1.06972,3.07241 l -12.32379,10.52355 15.96515,-2.33275 c 0.77604,1.50042 1.60126,2.97161 2.47379,4.4106 12.62854,20.82768 35.14181,34.99352 61.043,35.96076 0.045,0.001 0.0892,0.005 0.13423,0.007 0.8959,0.0318 1.79552,0.0478 2.69921,0.0478 9.36992,0 18.32644,-1.74586 26.58647,-4.90219 l 10.1025,11.81167 -6.59766,-45.18479 c 9.95842,-8.56304 16.27462,-21.24427 16.27462,-35.40773 0,-2.58246 -0.22013,-5.11057 -0.62359,-7.58087 l 35.19156,-29.95931 -14.68158,2.1438 c -12.44329,-23.91791 -37.42728,-40.26664 -66.25232,-40.26664 -8.06348,0 -15.8222,1.29329 -23.0977,3.6573 l 1.60226,2.2167 c -8.29169,-11.4514 -16.58323,-22.90279 -24.87513,-34.35405 z"
           id="path5000" />
        <path
           style="color:#000000;font-style:normal;font-variant:normal;font-weight:normal;font-stretch:normal;font-size:medium;line-height:normal;font-family:sans-serif;text-indent:0;text-align:start;text-decoration:none;text-decoration-line:none;text-decoration-style:solid;text-decoration-color:#000000;letter-spacing:normal;word-spacing:normal;text-transform:none;direction:ltr;block-progression:tb;writing-mode:lr-tb;baseline-shift:baseline;text-anchor:start;white-space:normal;clip-rule:nonzero;display:inline;overflow:visible;visibility:visible;opacity:1;isolation:auto;mix-blend-mode:normal;color-interpolation:sRGB;color-interpolation-filters:linearRGB;solid-color:#000000;solid-opacity:1;fill:#ffffff;fill-opacity:1;fill-rule:evenodd;stroke:none;stroke-width:8;stroke-linecap:butt;stroke-linejoin:round;stroke-miterlimit:4;stroke-dasharray:none;stroke-dashoffset:0;stroke-opacity:1;color-rendering:auto;image-rendering:auto;shape-rendering:auto;text-rendering:auto;enable-background:accumulate"
           d="m 251.71359,184.94637 a 4.6614141,4.6614141 0 0 0 -4.77247,5.58039 l 7.31459,36.06545 c -3.27063,2.16082 -6.42176,4.48444 -9.32867,7.0916 -1.8685,1.67588 -3.65659,3.43967 -5.35741,5.28222 -1.13297,1.22746 -2.22928,2.49108 -3.28628,3.79159 -1.58461,1.94961 -3.07659,3.9752 -4.47208,6.06969 -0.46443,0.69707 -0.92092,1.40329 -1.36547,2.11886 a 4.6614141,4.6614141 0 0 0 -0.0157,0.0272 c -0.43348,0.69814 -0.86159,1.40879 -1.28128,2.13473 a 4.6614141,4.6614141 0 0 0 -0.29361,0.61673 c -1.96433,3.46647 -3.71969,7.06973 -5.15249,10.83761 a 4.6614141,4.6614141 0 0 0 0,0.002 4.6614141,4.6614141 0 0 0 -0.007,0.0181 c -0.10935,0.28856 -0.18153,0.50303 -0.22535,0.6213 -0.50809,1.37172 -0.99389,2.7719 -1.43601,4.21033 -0.25101,0.81634 -0.4898,1.64317 -0.71694,2.47841 -0.45256,1.66451 -0.85052,3.34814 -1.1948,5.05012 -0.34471,1.70394 -0.63581,3.42746 -0.86938,5.16846 -0.46707,3.48202 -0.70779,7.03376 -0.70779,10.63962 0,1.21654 0.0279,2.42737 0.0819,3.62998 0.26531,5.86238 1.19337,11.55337 2.66734,17.0211 a 4.6614141,4.6614141 0 0 0 0.0933,0.4347 4.6614141,4.6614141 0 0 0 0,0.002 c 0.29997,1.08828 0.62388,2.16357 0.96731,3.22944 a 4.6614141,4.6614141 0 0 0 0.0272,0.0956 4.6614141,4.6614141 0 0 0 0,0.002 c 0.0179,0.0553 0.0386,0.10872 0.0572,0.16386 l -9.90224,8.45481 a 4.6614141,4.6614141 0 0 0 3.70054,8.15437 l 12.79707,-1.87076 c 0.33292,0.58177 0.63611,1.18224 0.98317,1.75469 13.4161,22.12651 37.35867,37.17566 64.85504,38.20248 a 4.6614141,4.6614141 0 0 0 0.0522,0 c -0.10585,-0.002 -0.10292,-0.004 0.0136,0.002 a 4.6614141,4.6614141 0 0 0 0.0752,0.005 c 0.95115,0.0338 1.90666,0.0501 2.86532,0.0501 8.77412,0 17.18674,-1.5172 25.07762,-4.15799 l 8.07019,9.43568 a 4.6614141,4.6614141 0 0 0 8.1544,-3.70281 l -6.27682,-42.98859 c 9.75579,-9.34492 16.00152,-22.37508 16.00152,-36.93028 0,-1.90312 -0.25358,-3.72837 -0.45749,-5.56901 l 33.38681,-28.42311 a 4.6614141,4.6614141 0 0 0 -3.69603,-8.16125 l -11.64323,1.70011 c -13.70105,-23.77333 -39.24588,-39.87069 -68.61697,-39.87069 -7.34761,0 -14.39276,1.19387 -21.14723,3.06786 -7.14913,-9.87351 -14.29834,-19.74687 -21.44762,-29.62024 a 4.6614141,4.6614141 0 0 0 -3.57089,-1.92088 z m 8.64141,24.81817 c 3.96634,5.47776 7.93182,10.95617 11.89817,16.434 0.11757,0.16232 0.23521,0.32463 0.35278,0.48701 6.4e-4,0 0,0 0,0 a 4.6614141,4.6614141 0 0 0 8.24995,-1.63628 c 5.47162,-1.37769 11.11812,-2.31005 17.02107,-2.31005 27.06269,0 50.45149,15.33312 62.11716,37.75641 a 4.6614141,4.6614141 0 0 0 3.66416,2.48525 l -23.06125,19.63152 a 4.6614141,4.6614141 0 0 0 -1.57717,4.29908 c 0.36536,2.23721 0.56212,4.51225 0.56212,6.82984 0,12.77776 -5.67967,24.15825 -14.65191,31.87334 a 4.6614141,4.6614141 0 0 0 -1.57489,4.20805 l 4.27632,29.28341 a 4.6614141,4.6614141 0 0 0 -4.83166,-0.93765 c -7.74592,2.95988 -16.13188,4.59494 -24.92288,4.59494 -0.84866,0 -1.69238,-0.0157 -2.53297,-0.0456 l 0.0751,0.005 c 0.0264,0.001 -0.0593,-0.006 -0.25487,-0.0117 l 0.0522,0 c -24.30593,-0.90768 -45.3899,-14.1902 -57.23089,-33.71905 -0.81786,-1.34881 -1.59133,-2.72815 -2.31913,-4.13523 a 4.6614141,4.6614141 0 0 0 -4.79292,-2.47158 l 0.0386,-0.0342 a 4.6614141,4.6614141 0 0 0 1.34046,-5.17074 c -0.348,-0.93414 -0.67549,-1.87633 -0.98317,-2.82434 a 4.6614141,4.6614141 0 0 0 -0.009,-0.0272 c 0,-0.009 -0.007,-0.0182 -0.009,-0.0272 a 4.6614141,4.6614141 0 0 0 0,-0.002 c -0.31305,-0.96748 -0.6078,-1.94275 -0.87854,-2.92446 0,-0.004 0,-0.006 0,-0.009 a 4.6614141,4.6614141 0 0 0 0,-0.002 c -1.36018,-4.93532 -2.19241,-10.08837 -2.43291,-15.40297 -0.0479,-1.06336 -0.0728,-2.13171 -0.0728,-3.20668 0,-3.19039 0.21363,-6.32842 0.62588,-9.40155 0.20606,-1.53657 0.46064,-3.05592 0.76468,-4.55853 0.30433,-1.5046 0.65569,-2.98994 1.05371,-4.45386 0.1982,-0.72895 0.41147,-1.45554 0.63496,-2.18255 0.38073,-1.23861 0.80421,-2.47532 1.26313,-3.71418 0.10277,-0.27744 0.16846,-0.46657 0.20477,-0.56214 a 4.6614141,4.6614141 0 0 0 0,-0.002 c 6.4e-4,-0.001 0,-0.004 0,-0.005 1.33474,-3.50915 2.94407,-6.88384 4.80206,-10.09795 0,-0.007 0.007,-0.009 0.009,-0.0136 0.36508,-0.63117 0.74553,-1.26191 1.13791,-1.89351 0,-0.007 0.007,-0.009 0.009,-0.0136 0.38788,-0.62388 0.78376,-1.24125 1.19251,-1.85477 1.23325,-1.85105 2.55105,-3.64021 3.94862,-5.35969 0.93107,-1.14548 1.9008,-2.26323 2.90398,-3.35004 1.50349,-1.62877 3.08045,-3.18436 4.72924,-4.66319 3.29929,-2.95909 6.88204,-5.61027 10.69879,-7.90631 a 4.6614141,4.6614141 0 0 0 2.16432,-4.92043 l -3.6573,-18.03383 z"
           id="path5027" />
        <g
           style="display:inline;fill:#d41112;fill-opacity:1"
           id="g125"
           transform="matrix(1.4565462,0,0,-1.4565462,302.60814,287.27178)">
          <path
             d="m 0,0 17.893,5.752 -16.295,-9.135 9.334,-6.34 -10.619,2.807 5.941,-18.463 -9.404,16.9 -5.688,-9.453 2.135,10.875 -17.781,-5.935 16.347,9.4 -10.282,5.85 11.716,-2.43 -6.584,17.391 L -3.389,1.246 2.41,11.334 0,0 Z"
             style="fill:#d41112;fill-opacity:1;fill-rule:evenodd;stroke:none"
             id="path127" />
        </g>
        <g
           style="display:inline;fill:#333333;fill-opacity:1;stroke:none"
           id="g129"
           transform="matrix(1.4565462,0,0,-1.4565462,297.87854,222.76281)">
          <path
             d="m 0,0 c 18.144,0 33.927,-10.073 42.085,-24.928 l 3.402,0.497 C 36.944,-8.01 19.79,3.215 0,3.215 c -5.536,0 -10.863,-0.889 -15.858,-2.512 l 1.988,-2.746 C -9.478,-0.72 -4.823,0 0,0"
             style="fill:#333333;fill-opacity:1;fill-rule:nonzero;stroke:none"
             id="path131" />
        </g>
        <path
           id="path135"
           style="fill:#d41112;fill-opacity:1;fill-rule:nonzero;stroke:none"
           d="m 330.22973,364.78028 -41.92086,-49.01278 -63.17477,9.22431 47.77325,-40.79058 0.65108,-0.55786 -16.38469,-80.71742 48.80887,66.85547 63.23449,-9.23159 -48.21313,41.04111 9.22576,63.18934 z m -32.35135,-2.21249 c -26.42612,0 -49.42352,-14.66742 -61.30603,-36.3015 l 24.3753,-3.5598 c 8.55284,10.793 21.76663,17.72616 36.60738,17.72616 2.55332,0 5.05567,-0.21265 7.49684,-0.60738 l 16.05988,18.7778 c -7.26962,2.56352 -15.08545,3.96472 -23.23337,3.96472 m -37.43469,-128.92328 5.26687,25.9644 c -9.13109,8.5237 -14.84658,20.65965 -14.84658,34.13416 0,1.7595 0.10488,3.48988 0.29423,5.19695 l -19.52938,16.676 0.17042,-0.14566 c -2.46593,-7.15018 -3.82489,-14.81598 -3.82489,-22.80514 0,-24.83266 12.95744,-46.62259 32.46933,-59.02071 m 83.80093,60.09856 c 0,-2.58246 -0.21848,-5.11103 -0.62195,-7.58133 l 35.19162,-29.95824 -46.1798,6.74381 c -8.55721,-9.74284 -21.09516,-15.8982 -35.07946,-15.8982 -1.45072,0 -2.88251,0.0757 -4.29973,0.20537 l -41.74752,-57.65447 7.93672,39.12575 c -21.71128,13.06085 -36.23887,36.84625 -36.23887,64.03122 0,9.16605 1.659,17.93883 4.68134,26.05179 l -12.32384,10.52355 15.9652,-2.33194 c 12.41706,24.0068 37.45655,40.42644 66.35005,40.42644 9.37142,0 18.32772,-1.74639 26.5878,-4.90273 l 10.1026,11.81259 -6.59815,-45.18643 c 9.9584,-8.56304 16.27399,-21.24373 16.27399,-35.40718" />
        <g
           style="display:inline;fill:#333333;fill-opacity:1;stroke:none"
           id="g137"
           transform="matrix(1.4565462,0,0,-1.4565462,231.52895,327.00111)">
          <path
             d="m 0,0 c 8.524,-16.481 25.716,-27.755 45.553,-27.755 6.433,0 12.583,1.199 18.254,3.366 l -2.303,2.693 c -4.991,-1.76 -10.358,-2.723 -15.951,-2.723 -18.144,0 -33.932,10.07 -42.09,24.924 L 0,0 Z M 19.166,67.472 C 4.26,58.505 -5.714,42.175 -5.714,23.511 c 0,-6.293 1.139,-12.317 3.214,-17.887 l 2.686,2.293 c -1.694,4.908 -2.626,10.172 -2.626,15.656 0,17.049 8.896,32.009 22.292,40.522 l -0.686,3.377 z"
             style="fill:#333333;fill-opacity:1;fill-rule:nonzero;stroke:none"
             id="path139" />
        </g>
      </g>
    </g>
  </g>
</svg>
