<?xml version="1.0" encoding="UTF-8" standalone="no"?>
<svg
   xmlns:dc="http://purl.org/dc/elements/1.1/"
   xmlns:cc="http://creativecommons.org/ns#"
   xmlns:rdf="http://www.w3.org/1999/02/22-rdf-syntax-ns#"
   xmlns:svg="http://www.w3.org/2000/svg"
   xmlns="http://www.w3.org/2000/svg"
   version="1.1"
   id="svg3324"
   height="177.16534"
   width="708.66138">
  <defs
     id="defs3326" />
  <metadata
     id="metadata3329">
    <rdf:RDF>
      <cc:Work
         rdf:about="">
        <dc:format>image/svg+xml</dc:format>
        <dc:type
           rdf:resource="http://purl.org/dc/dcmitype/StillImage" />
        <dc:title></dc:title>
      </cc:Work>
    </rdf:RDF>
  </metadata>
  <g
     style="display:inline"
     id="layer2" />
  <g
     style="display:inline"
     transform="translate(0,-875.19548)"
     id="layer1">
    <path
       id="path3834-6-6-9-0-4-2-8-7-95-6"
       d="m 83.665847,891.02607 c 4.228336,0.37468 7.26692,31.38824 9.526898,37.779 l -7.720091,29.56615 5.420475,34.98662 -7.39155,32.52286 c 0,0 3.613663,0.3285 14.783105,4.1064 11.169436,3.7779 19.218016,5.5847 19.218016,5.5847 l 8.37706,-29.8947 -6.24172,-36.13643 7.39151,-34.98663 c -1.84832,-4.50557 -6.12745,-35.22208 -9.36258,-34.32961 0,0 -6.40604,-2.79237 -14.45457,-5.5847 -8.048579,-2.79237 -19.546553,-3.61366 -19.546553,-3.61366 z"
       style="display:inline;fill:#e9ddaf;fill-opacity:1;stroke:#333333;stroke-width:2.99862027;stroke-linecap:round;stroke-linejoin:round;stroke-miterlimit:4;stroke-dasharray:none;stroke-opacity:1" />
    <path
       id="path3834-2-6-3-3-9-8-8-6"
       d="m 17.285677,891.21086 c -1.793033,-0.005 -2.915548,0.0821 -3.100338,0.14374 0,0 4.927716,8.54134 7.72004,18.23245 2.792419,9.69113 4.10647,16.75419 4.10647,16.75419 0,0 -3.613667,8.37706 -5.420522,16.26137 -1.806808,7.88431 -3.777884,15.11158 -3.777884,15.11158 0,0 3.777884,10.51241 6.077499,19.71079 2.299611,9.19834 2.46388,15.93286 2.46388,15.93286 0,0 -2.628104,6.73456 -4.927716,15.93296 -2.299612,9.1983 -3.285127,20.2035 -3.285127,20.2035 0,0 6.077499,-1.314 18.725256,0.8213 12.647711,2.1353 21.189043,3.9421 21.189043,3.9421 l 0.985564,-34.98661 -8.048576,-30.55167 10.512411,-39.25732 c -1.458735,-10.17076 -5.957696,-19.74133 -9.362629,-29.40194 0,0 -12.154951,-5.91323 -20.696288,-7.55577 -5.338339,-1.02661 -10.172724,-1.28552 -13.161083,-1.29353 z"
       style="display:inline;fill:#e9ddaf;fill-opacity:1;stroke:#333333;stroke-width:2.99862027;stroke-linecap:round;stroke-linejoin:round;stroke-miterlimit:4;stroke-dasharray:none;stroke-opacity:1" />
    <path
       id="path3834-6-2-4-6-4-93-9-0-5"
       d="m 83.665847,891.02607 c 0,0 -2.135348,2.29961 -14.454568,5.2562 -12.31922,2.95664 -18.068231,3.77789 -18.068231,3.77789 3.404933,9.66061 7.903894,19.23118 9.362629,29.40194 l -10.512411,39.25732 8.048576,30.55167 -0.985564,34.98661 c 0,0 8.377114,-1.8068 15.768668,-4.1064 7.391502,-2.2995 10.676633,-4.2706 10.676633,-4.2706 l 7.39155,-31.86582 -5.420475,-35.64366 7.720091,-29.56615 c -2.259978,-6.39076 -5.298562,-37.40432 -9.526898,-37.779 z"
       style="display:inline;fill:#786721;fill-opacity:1;stroke:#333333;stroke-width:2.99862027;stroke-linecap:round;stroke-linejoin:round;stroke-miterlimit:4;stroke-dasharray:none;stroke-opacity:1" />
    <path
       id="path3834-6-6-3-7-6-5-7-2-3"
       d="m 152.32506,889.87628 c 0,0 -15.93288,5.91323 -20.86055,6.89875 -4.92772,0.98556 -13.79754,3.4494 -13.79754,3.4494 3.23513,-0.89247 7.51426,29.82404 9.36258,34.32961 l -7.39151,34.98663 6.24172,36.13643 -8.37706,29.8947 c 0,0 8.54133,-1.8068 17.08267,-3.7779 8.54133,-1.9711 17.4112,-5.2562 17.4112,-5.2562 0,0 -0.4928,-3.2851 2.79233,-16.0972 3.28513,-12.81195 5.74901,-18.39669 5.74901,-18.39669 0,0 -0.32854,-2.9566 -2.46388,-12.97627 -2.1353,-10.01962 -6.57026,-19.54653 -6.57026,-19.54653 0,0 1.14983,-6.89874 4.43496,-15.60433 3.28513,-8.70564 6.73448,-17.57544 6.73448,-17.57544 0,0 -3.12086,-10.01966 -4.92767,-19.54656 -1.80681,-9.52685 -5.42048,-16.9184 -5.42048,-16.9184 z"
       style="display:inline;fill:#786721;fill-opacity:1;stroke:#333333;stroke-width:2.99862003;stroke-linecap:round;stroke-linejoin:round;stroke-miterlimit:4;stroke-dasharray:none;stroke-opacity:1" />
    <path
       id="path10829-5-9-9-3-3"
       d="m 26.226532,925.34916 34.493873,3.12086 32.687022,-0.65702 33.836843,5.74896 35.64367,-8.2128"
       style="display:inline;fill:none;stroke:#333333;stroke-width:2.99862027;stroke-linecap:round;stroke-linejoin:round;stroke-miterlimit:4;stroke-dasharray:none;stroke-opacity:1" />
    <path
       id="path10831-0-4-3-9-2"
       d="m 17.028125,956.72213 33.179822,11.00519 35.479438,-10.34815 34.165335,11.16948 31.86578,-10.01966"
       style="display:inline;fill:none;stroke:#333333;stroke-width:2.99862027;stroke-linecap:round;stroke-linejoin:round;stroke-miterlimit:4;stroke-dasharray:none;stroke-opacity:1" />
    <path
       id="path10833-6-10-3-9-2"
       d="m 25.421447,992.36579 32.687021,5.91324 32.851287,-5.91324 34.986635,12.31931 34.65814,-13.63338"
       style="display:inline;fill:none;stroke:#333333;stroke-width:2.99862027;stroke-linecap:round;stroke-linejoin:round;stroke-miterlimit:4;stroke-dasharray:none;stroke-opacity:1" />
    <rect
       y="903.87531"
       x="73.603043"
       height="44.319496"
       width="90.800911"
       id="rect6110-8-9"
       style="color:#000000;display:inline;overflow:visible;visibility:visible;fill:#d41112;fill-opacity:1;fill-rule:nonzero;stroke:none;stroke-width:8;marker:none;enable-background:accumulate" />
    <g
       style="display:inline;fill:#ffffff;fill-opacity:1"
       id="g4027-0-0-7"
       transform="matrix(0.46853438,0,0,0.46853438,810.51315,1109.6469)">
      <path
         style="fill:#ffffff;fill-opacity:1"
         id="path3369-5-4-5-6-0-8-8-0-4-7-6"
         d="m -1473.3275,-426.88513 c 6.1244,0.49141 12.9677,2.11124 16.6533,7.49856 3.085,4.24068 3.1487,9.7099 2.7028,14.72413 -0.01,1.21941 -1.5289,1.67444 -2.5208,1.71084 -3.3488,0.009 -6.725,0.24568 -10.0557,-0.17292 -2.7209,-1.43784 -0.6279,-5.44192 -2.5207,-7.53497 -0.9646,-1.47423 -2.7574,-1.83823 -4.2953,-2.38424 -0.064,-4.6138 -0.1274,-9.22759 0.036,-13.8414 z" />
      <path
         style="fill:#ffffff;fill-opacity:1"
         id="path3377-7-0-3-3-0-0-8-89-6-79-1"
         d="m -1541.4515,-426.06611 c 10.2559,-0.22751 20.5209,0.0273 30.7859,-0.10921 1.547,0.11831 3.5582,-0.48231 4.4409,1.23763 0.4732,4.14969 0.1183,8.35397 0.2002,12.53097 -12.1214,-0.19109 -24.2793,0.4368 -36.3826,-0.35492 -0.4732,-4.04957 -0.5642,-8.18107 -0.1546,-12.23975 0.273,-0.26391 0.8281,-0.79172 1.1102,-1.06472 z" />
      <path
         style="fill:#ffffff;fill-opacity:1"
         id="path3387-7-2-0-6-8-5-5-2-1-0-9"
         d="m -1491.992,-421.85273 c 3.9495,-3.64917 9.5188,-4.66839 14.715,-4.9323 -0.091,4.56831 0.055,9.1457 -0.082,13.7231 -3.2488,0.66432 -5.2872,3.66736 -5.2417,6.89793 -0.027,9.70082 -0.082,19.41982 0.045,29.12972 0.082,3.23967 2.1021,5.90603 5.2599,6.74324 0.018,4.4591 -0.036,8.9273 0,13.3955 -5.724,-0.0455 -11.9122,-1.52884 -15.8616,-5.94244 -2.8484,-3.04856 -3.7311,-7.36204 -3.8039,-11.40254 0.01,-11.85754 0,-23.71509 0,-35.56355 0.036,-4.44089 1.5288,-9.07288 4.9687,-12.04866 z" />
      <path
         style="fill:#ffffff;fill-opacity:1"
         id="path3389-0-1-6-4-8-4-8-53-1-2-4"
         d="m -1445.2899,-425.6748 c 2.7847,-0.63702 5.6513,-0.49142 8.4905,-0.48231 9.1002,0.0546 18.1913,-0.0546 27.2915,0.0546 1.3832,4.42269 0.4914,9.1457 0.6552,13.7049 -10.2468,0.0182 -20.4845,-0.0273 -30.7222,0.0182 -1.9111,0.0182 -3.813,-0.19111 -5.6876,-0.48232 -0.3368,-4.268 -0.3276,-8.55419 -0.027,-12.81307 z" />
      <path
         style="fill:#ffffff;fill-opacity:1"
         id="path3407-0-6-8-7-2-5-7-2-9-3-1"
         d="m -1525.1804,-407.93852 c 5.542,-0.009 11.0931,-0.0819 16.6351,0.0273 -5.5693,10.84743 -11.2478,21.62204 -16.9627,32.3876 -5.4692,-0.0728 -10.9384,0.0182 -16.4076,-0.0637 5.3418,-10.90202 11.2023,-21.54925 16.7352,-32.3512 z" />
      <path
         style="fill:#ffffff;fill-opacity:1"
         id="path3409-8-0-3-9-7-2-6-5-2-2-0"
         d="m -1428.1269,-407.62912 c 5.5602,-0.78263 11.3116,-0.11831 16.9446,-0.3276 -5.6694,10.76554 -11.3753,21.52195 -16.9173,32.36028 -5.5602,0.0455 -11.1204,0.0546 -16.6806,0.0364 5.542,-10.69273 11.1295,-21.36725 16.6533,-32.06908 z" />
      <path
         style="fill:#ffffff;fill-opacity:1"
         id="path3413-2-7-8-2-2-2-4-9-4-8-73"
         d="m -1477.7047,-393.0415 c 0.082,-1.27403 1.1011,-2.09304 2.3569,-1.86555 6.3156,-0.13649 12.6311,-0.1092 18.9466,-0.0273 0.9828,-0.0273 2.6027,0.41861 2.4662,1.71084 0.2548,6.31553 0,12.64929 0.1001,18.98301 0.1365,4.6684 -1.5198,9.5916 -5.178,12.65836 -3.9222,3.46717 -9.3095,4.57741 -14.4056,4.69569 0.018,-4.45908 0,-8.90909 0,-13.35909 1.7654,-0.91 4.1406,-1.53792 4.8413,-3.63096 0.8463,-2.43884 0.4004,-5.07792 0.5369,-7.59864 -3.0759,0.0455 -6.1609,0.0637 -9.2367,-0.0182 -0.8645,-3.77661 -0.8281,-7.72609 -0.4277,-11.54817 z" />
      <path
         style="fill:#ffffff;fill-opacity:1"
         id="path3417-4-0-2-5-1-9-3-5-4-7-5"
         d="m -1544.2817,-371.13734 c 11.8121,0.0455 23.615,0.0364 35.418,0.009 1.4378,-0.0637 2.8574,0.24569 4.2497,0.6006 0.1456,3.80388 0.4186,7.65326 0.01,11.44804 -0.3003,2.06576 -2.7664,1.50153 -4.2589,1.66533 -11.6664,-0.13649 -23.3328,0.22751 -34.9811,-0.2002 -0.9373,-4.45 -0.4095,-9.01829 -0.4368,-13.52288 z" />
      <path
         style="fill:#ffffff;fill-opacity:1"
         id="path3419-6-3-5-8-1-2-3-6-2-1-0"
         d="m -1446.7459,-371.13734 c 13.0861,0.28209 26.2177,-0.43682 39.2765,0.37309 0.091,4.32259 0.1183,8.65428 -0.027,12.98599 -4.2862,0.60972 -8.627,0.273 -12.9314,0.35489 -8.6725,-0.0637 -17.345,0.13651 -26.0084,-0.1274 -0.6643,-4.5046 -0.3731,-9.06379 -0.3094,-13.58657 z" />
    </g>
    <g
       style="display:inline;fill:#333333;fill-opacity:1"
       transform="matrix(0.22990771,0,0,0.22990771,595.42021,1137.3697)"
       id="g5284-8-0">
      <path
         style="display:inline;fill:#333333;fill-opacity:1;stroke:#ffffff;stroke-width:6.40000057;stroke-linecap:round;stroke-linejoin:round;stroke-miterlimit:4;stroke-dasharray:none;stroke-opacity:1"
         d="m -2168.2849,-1022.6143 c -27.2375,-0.01 -54.4994,10.3592 -75.2668,31.1266 -37.2521,37.2521 -40.9881,95.28272 -11.4183,136.83179 l -24.3069,24.33816 25.089,25.05766 24.3069,-24.30688 c 41.549,29.56985 99.5797,25.83383 136.8317,-11.41829 41.5349,-41.53482 41.5349,-108.93634 0,-150.47114 -20.7674,-20.7674 -47.9979,-31.1524 -75.2356,-31.1579 z m -2.1272,17.7375 c 23.4009,-0.5521 46.9714,8.1179 64.8184,25.9649 34.6123,34.61232 34.6436,90.76981 0.031,125.38218 -34.6124,34.61237 -90.8324,34.61237 -125.4448,0 -34.6124,-34.61236 -34.6124,-90.80114 0,-125.41348 16.7653,-16.7654 38.6124,-25.4151 60.5951,-25.9336 z"
         id="path1736-2-7-5-1-3-3" />
      <path
         style="display:inline;fill:#333333;fill-opacity:1;stroke:#ffffff;stroke-width:6.40000057;stroke-linecap:round;stroke-linejoin:round;stroke-miterlimit:4;stroke-dasharray:none;stroke-opacity:1"
         d="m -2279.2769,-830.31775 c 0,0 -19.2927,-5.79626 -26.5905,1.50157 l -83.2753,83.27532 c -7.843,7.84303 -7.843,20.46809 0,28.31111 l 21.8355,21.8668 c 7.843,7.84305 20.4681,7.84305 28.3111,0 l 83.3066,-83.2753 c 7.298,-7.29799 1.5016,-26.62184 1.5016,-26.62184 z"
         id="path1736-6-1-5-2-1-8-0" />
    </g>
    <g
       transform="matrix(0.75453337,0,0,0.75453337,163.80947,229.77051)"
       id="g6680">
      <g
         id="text3888-3-5-0-5-7-1-2-5-1-4-7-3"
         style="font-style:normal;font-variant:normal;font-weight:normal;font-stretch:normal;font-size:62.59555054px;line-height:93.99999976%;font-family:'Varela Round';-inkscape-font-specification:'Varela Round';text-align:center;letter-spacing:0px;word-spacing:0px;text-anchor:middle;fill:#333333;fill-opacity:1;stroke:#333333;stroke-width:12.00000191;stroke-linecap:round;stroke-linejoin:round;stroke-miterlimit:4;stroke-dasharray:none;stroke-opacity:1">
        <path
           id="path8846"
           style="font-style:normal;font-variant:normal;font-weight:normal;font-stretch:normal;line-height:93.99999976%;font-family:'Varela Round';-inkscape-font-specification:'Varela Round';text-align:center;text-anchor:middle;fill:#333333;fill-opacity:1;stroke:#333333;stroke-width:12.00000191;stroke-linecap:round;stroke-linejoin:round;stroke-miterlimit:4;stroke-dasharray:none;stroke-opacity:1"
           d="m 69.263798,904.48428 q 1.69008,0 2.879395,1.25191 1.189316,1.18932 1.189316,2.8794 l 0,37.36954 q 0,1.18932 -0.813743,2.00306 -0.813742,0.81374 -2.003057,0.81374 -1.189316,0 -2.065653,-0.81374 -0.813743,-0.81374 -0.813743,-2.00306 l 0,-35.55427 -14.459572,35.74206 q -0.500764,1.18931 -1.564888,1.94046 -1.064125,0.68855 -2.441227,0.68855 -1.377102,0 -2.441226,-0.68855 -1.064125,-0.75115 -1.564889,-1.94046 l -14.459572,-35.74206 0,35.55427 q 0,1.18932 -0.876338,2.00306 -0.813742,0.81374 -2.003058,0.81374 -1.189315,0 -2.003057,-0.81374 -0.813742,-0.81374 -0.813742,-2.00306 l 0,-37.36954 q 0,-1.69008 1.189315,-2.8794 1.189315,-1.25191 2.879395,-1.25191 l 2.065653,0 q 1.251911,0 2.25344,0.75115 1.064125,0.75114 1.564889,1.87786 l 14.20919,35.42909 14.20919,-35.42909 q 0.500764,-1.12672 1.502293,-1.87786 1.064125,-0.75115 2.316036,-0.75115 l 2.065653,0 z" />
        <path
           id="path8848"
           style="font-style:normal;font-variant:normal;font-weight:normal;font-stretch:normal;line-height:93.99999976%;font-family:'Varela Round';-inkscape-font-specification:'Varela Round';text-align:center;text-anchor:middle;fill:#333333;fill-opacity:1;stroke:#333333;stroke-width:12.00000191;stroke-linecap:round;stroke-linejoin:round;stroke-miterlimit:4;stroke-dasharray:none;stroke-opacity:1"
           d="m 84.854981,918.19271 q 5.258026,-2.25344 10.891626,-2.25344 6.384743,0 9.890093,3.88092 3.12978,3.38016 3.12978,8.4504 l 0,17.71454 q 0,1.18932 -0.87634,2.00306 -0.81374,0.81374 -2.00305,0.81374 -1.18932,0 -2.00306,-0.81374 -0.81374,-0.81374 -0.81374,-2.00306 l 0,-1.62748 q -1.69008,1.75267 -4.569479,3.25496 -2.8168,1.5023 -7.198488,1.5023 -4.319093,0 -7.198489,-2.50382 -3.004586,-2.62902 -3.004586,-6.88551 0,-4.63208 3.505351,-7.26109 3.818328,-2.87939 10.891625,-2.87939 l 7.574066,0 0,-0.50077 q 0,-4.1939 -2.06566,-5.94658 -2.06565,-1.81527 -6.322148,-1.81527 -3.630542,0 -8.325208,1.5023 -0.500764,0.12519 -1.12672,0.12519 -0.625955,0 -1.314506,-0.62596 -0.688551,-0.68855 -0.688551,-2.06565 0,-1.3771 1.627484,-2.06565 z m 1.940462,20.90691 q 0,5.00764 6.635128,5.00764 2.941991,0 5.445813,-1.43969 2.566416,-1.4397 4.193906,-3.25497 l 0,-5.25803 -6.822919,0 q -4.444284,0 -6.948106,1.12672 -2.503822,1.12672 -2.503822,3.81833 z" />
        <path
           id="path8850"
           style="font-style:normal;font-variant:normal;font-weight:normal;font-stretch:normal;line-height:93.99999976%;font-family:'Varela Round';-inkscape-font-specification:'Varela Round';text-align:center;text-anchor:middle;fill:#333333;fill-opacity:1;stroke:#333333;stroke-width:12.00000191;stroke-linecap:round;stroke-linejoin:round;stroke-miterlimit:4;stroke-dasharray:none;stroke-opacity:1"
           d="m 124.08283,920.69653 q 4.63207,-4.75726 10.70384,-4.75726 6.07176,0 10.39086,4.31909 4.75726,4.75726 4.75726,12.26873 0,7.63665 -4.75726,12.33132 -4.38169,4.2565 -10.45346,4.2565 -6.00917,0 -10.64124,-4.75726 l 0,15.96186 q 0,1.25191 -0.81375,2.06565 -0.81374,0.81375 -2.06565,0.81375 -1.18931,0 -2.00306,-0.81375 -0.81374,-0.81374 -0.81374,-2.06565 l 0,-41.25047 q 0,-1.18931 0.81374,-2.00305 0.81375,-0.81375 2.00306,-0.81375 1.25191,0 2.06565,0.81375 0.81375,0.81374 0.81375,2.00305 l 0,1.62749 z m 0,18.40309 q 4.25649,4.69467 9.89009,4.69467 7.1359,0 9.51453,-6.38475 0.75114,-2.12825 0.75114,-4.88245 0,-5.38322 -2.87939,-8.4504 -2.75421,-2.8168 -7.38628,-2.8168 -5.6336,0 -9.89009,4.69466 l 0,13.14507 z" />
        <path
           id="path8852"
           style="font-style:normal;font-variant:normal;font-weight:normal;font-stretch:normal;line-height:93.99999976%;font-family:'Varela Round';-inkscape-font-specification:'Varela Round';text-align:center;text-anchor:middle;fill:#333333;fill-opacity:1;stroke:#333333;stroke-width:12.00000191;stroke-linecap:round;stroke-linejoin:round;stroke-miterlimit:4;stroke-dasharray:none;stroke-opacity:1"
           d="m 161.75655,934.53014 q 0.50077,4.2565 3.19238,6.76032 2.69161,2.50383 7.51146,2.50383 4.81986,0 8.07483,-1.62749 1.12672,-0.56336 1.94046,-0.56336 0.81374,0 1.56489,0.68855 0.75115,0.68855 0.75115,1.56489 0,1.62749 -1.37711,2.37863 -1.3145,0.68855 -2.37863,1.18932 -1.06412,0.50076 -2.31603,0.87634 -2.8168,0.81374 -6.50994,0.81374 -7.69925,0 -11.95575,-4.31909 -4.2565,-4.3191 -4.2565,-12.26873 0,-6.88551 3.56795,-11.45499 4.00612,-5.13283 11.39239,-5.13283 7.0107,0 11.07941,4.75726 3.81833,4.44428 3.81833,11.01682 0,1.18931 -0.81374,2.00305 -0.75115,0.81374 -2.06565,0.81374 l -21.2199,0 z m 9.20155,-13.77102 q -5.571,0 -8.13742,4.94505 -0.93893,1.75268 -1.06413,4.1939 l 18.46569,0 q -0.25038,-4.44428 -3.25497,-7.0107 -2.50382,-2.12825 -6.00917,-2.12825 z" />
        <path
           id="path8854"
           style="font-style:normal;font-variant:normal;font-weight:normal;font-stretch:normal;line-height:93.99999976%;font-family:'Varela Round';-inkscape-font-specification:'Varela Round';text-align:center;text-anchor:middle;fill:#333333;fill-opacity:1;stroke:#333333;stroke-width:12.00000191;stroke-linecap:round;stroke-linejoin:round;stroke-miterlimit:4;stroke-dasharray:none;stroke-opacity:1"
           d="m 194.76397,918.19271 q 5.25802,-2.25344 10.89162,-2.25344 6.38475,0 9.8901,3.88092 3.12978,3.38016 3.12978,8.4504 l 0,17.71454 q 0,1.18932 -0.87634,2.00306 -0.81374,0.81374 -2.00306,0.81374 -1.18931,0 -2.00306,-0.81374 -0.81374,-0.81374 -0.81374,-2.00306 l 0,-1.62748 q -1.69008,1.75267 -4.56947,3.25496 -2.8168,1.5023 -7.19849,1.5023 -4.3191,0 -7.19849,-2.50382 -3.00459,-2.62902 -3.00459,-6.88551 0,-4.63208 3.50535,-7.26109 3.81833,-2.87939 10.89163,-2.87939 l 7.57406,0 0,-0.50077 q 0,-4.1939 -2.06565,-5.94658 -2.06566,-1.81527 -6.32215,-1.81527 -3.63054,0 -8.32521,1.5023 -0.50077,0.12519 -1.12672,0.12519 -0.62596,0 -1.31451,-0.62596 -0.68855,-0.68855 -0.68855,-2.06565 0,-1.3771 1.62749,-2.06565 z m 1.94046,20.90691 q 0,5.00764 6.63513,5.00764 2.94199,0 5.44581,-1.43969 2.56642,-1.4397 4.1939,-3.25497 l 0,-5.25803 -6.82291,0 q -4.44429,0 -6.94811,1.12672 -2.50382,1.12672 -2.50382,3.81833 z" />
        <path
           id="path8856"
           style="font-style:normal;font-variant:normal;font-weight:normal;font-stretch:normal;line-height:93.99999976%;font-family:'Varela Round';-inkscape-font-specification:'Varela Round';text-align:center;text-anchor:middle;fill:#333333;fill-opacity:1;stroke:#333333;stroke-width:12.00000191;stroke-linecap:round;stroke-linejoin:round;stroke-miterlimit:4;stroke-dasharray:none;stroke-opacity:1"
           d="m 252.20713,944.35765 q -4.63207,4.75726 -10.70384,4.75726 -6.00917,0 -10.39086,-4.2565 -4.75726,-4.69467 -4.75726,-12.33132 0,-7.51147 4.75726,-12.26873 4.31909,-4.31909 10.39086,-4.31909 6.07177,0 10.70384,4.75726 l 0,-15.33591 q 0,-1.25191 0.81374,-2.06565 0.81374,-0.81375 2.00306,-0.81375 1.25191,0 2.06565,0.81375 0.81374,0.81374 0.81374,2.06565 l 0,40.62451 q 0,1.18932 -0.81374,2.00306 -0.81374,0.81374 -2.06565,0.81374 -1.18932,0 -2.00306,-0.81374 -0.81374,-0.81374 -0.81374,-2.00306 l 0,-1.62748 z m 0,-18.4031 q -4.2565,-4.69466 -9.8901,-4.69466 -7.13589,0 -9.45193,6.38474 -0.81374,2.12825 -0.81374,4.88246 0,5.38321 2.94199,8.4504 2.69161,2.8168 7.32368,2.8168 5.6336,0 9.8901,-4.69467 l 0,-13.14507 z" />
        <path
           id="path8858"
           style="font-style:normal;font-variant:normal;font-weight:normal;font-stretch:normal;line-height:93.99999976%;font-family:'Varela Round';-inkscape-font-specification:'Varela Round';text-align:center;text-anchor:middle;fill:#333333;fill-opacity:1;stroke:#333333;stroke-width:12.00000191;stroke-linecap:round;stroke-linejoin:round;stroke-miterlimit:4;stroke-dasharray:none;stroke-opacity:1"
           d="m 281.86861,915.93927 q 7.26108,0 11.64277,4.56947 4.38169,4.63207 4.38169,12.01835 0,7.38627 -4.38169,12.01834 -4.38169,4.56948 -11.64277,4.56948 -7.32368,0 -11.64277,-4.56948 -4.38169,-4.56947 -4.38169,-12.01834 0,-7.44887 4.38169,-12.01835 4.31909,-4.56947 11.64277,-4.56947 z m -7.0107,25.41379 q 1.50229,1.31451 3.31756,1.94046 1.87787,0.62596 3.63054,0.62596 1.81528,0 3.63055,-0.62596 1.87786,-0.62595 3.38016,-1.94046 3.38016,-3.06718 3.38016,-8.88857 0,-5.6336 -3.38016,-8.76338 -2.8168,-2.56641 -6.94811,-2.56641 -6.76032,0 -9.38933,6.07177 -0.93894,2.19084 -0.93894,5.32062 0,3.06718 0.93894,5.25802 0.93893,2.19085 2.37863,3.56795 z" />
        <path
           id="path8860"
           style="font-style:normal;font-variant:normal;font-weight:normal;font-stretch:normal;line-height:93.99999976%;font-family:'Varela Round';-inkscape-font-specification:'Varela Round';text-align:center;text-anchor:middle;fill:#333333;fill-opacity:1;stroke:#333333;stroke-width:12.00000191;stroke-linecap:round;stroke-linejoin:round;stroke-miterlimit:4;stroke-dasharray:none;stroke-opacity:1"
           d="m 354.55378,940.7271 q 0.50076,-0.25038 1.3771,-0.25038 0.93893,0 1.56489,0.75115 0.68855,0.68855 0.68855,1.62748 0,1.69008 -1.3771,2.37863 -2.94199,1.62749 -6.32215,2.75421 -3.31757,1.12672 -8.01224,1.12672 -4.63207,0 -8.63818,-1.5023 -4.00612,-1.56488 -6.94811,-4.50687 -6.25955,-6.13437 -6.25955,-16.46263 0,-10.32827 6.25955,-16.46263 6.07177,-6.00918 15.64889,-6.00918 4.63207,0 7.94964,1.12672 3.38016,1.12672 5.13283,2.12825 1.81527,0.93893 2.19084,1.56489 0.37558,0.56336 0.37558,1.50229 0,0.87634 -0.68855,1.62749 -0.62596,0.68855 -1.56489,0.68855 -0.87634,0 -1.3771,-0.25038 -2.50383,-1.31451 -5.13284,-2.12825 -2.62901,-0.81374 -6.57253,-0.81374 -3.88093,0 -7.0733,1.3145 -3.12978,1.31451 -5.25803,3.63054 -4.1939,4.56948 -4.1939,12.08095 0,7.51146 4.1939,12.08094 4.56948,4.94505 12.58171,4.94505 3.69314,0 6.32215,-0.81375 2.62901,-0.81374 5.13284,-2.12825 z" />
        <path
           id="path8862"
           style="font-style:normal;font-variant:normal;font-weight:normal;font-stretch:normal;line-height:93.99999976%;font-family:'Varela Round';-inkscape-font-specification:'Varela Round';text-align:center;text-anchor:middle;fill:#333333;fill-opacity:1;stroke:#333333;stroke-width:12.00000191;stroke-linecap:round;stroke-linejoin:round;stroke-miterlimit:4;stroke-dasharray:none;stroke-opacity:1"
           d="m 378.81835,915.93927 q 7.26108,0 11.64277,4.56947 4.38169,4.63207 4.38169,12.01835 0,7.38627 -4.38169,12.01834 -4.38169,4.56948 -11.64277,4.56948 -7.32368,0 -11.64277,-4.56948 -4.38169,-4.56947 -4.38169,-12.01834 0,-7.44887 4.38169,-12.01835 4.31909,-4.56947 11.64277,-4.56947 z m -7.0107,25.41379 q 1.50229,1.31451 3.31756,1.94046 1.87787,0.62596 3.63054,0.62596 1.81527,0 3.63054,-0.62596 1.87787,-0.62595 3.38016,-1.94046 3.38016,-3.06718 3.38016,-8.88857 0,-5.6336 -3.38016,-8.76338 -2.8168,-2.56641 -6.9481,-2.56641 -6.76032,0 -9.38933,6.07177 -0.93894,2.19084 -0.93894,5.32062 0,3.06718 0.93894,5.25802 0.93893,2.19085 2.37863,3.56795 z" />
        <path
           id="path8864"
           style="font-style:normal;font-variant:normal;font-weight:normal;font-stretch:normal;line-height:93.99999976%;font-family:'Varela Round';-inkscape-font-specification:'Varela Round';text-align:center;text-anchor:middle;fill:#333333;fill-opacity:1;stroke:#333333;stroke-width:12.00000191;stroke-linecap:round;stroke-linejoin:round;stroke-miterlimit:4;stroke-dasharray:none;stroke-opacity:1"
           d="m 403.25703,905.36062 q 0,-1.25191 0.81374,-2.06565 0.81374,-0.81375 2.00305,-0.81375 1.25192,0 2.06566,0.81375 0.81374,0.81374 0.81374,2.06565 l 0,40.62451 q 0,1.18932 -0.81374,2.00306 -0.81374,0.81374 -2.06566,0.81374 -1.18931,0 -2.00305,-0.81374 -0.81374,-0.81374 -0.81374,-2.00306 l 0,-40.62451 z" />
        <path
           id="path8866"
           style="font-style:normal;font-variant:normal;font-weight:normal;font-stretch:normal;line-height:93.99999976%;font-family:'Varela Round';-inkscape-font-specification:'Varela Round';text-align:center;text-anchor:middle;fill:#333333;fill-opacity:1;stroke:#333333;stroke-width:12.00000191;stroke-linecap:round;stroke-linejoin:round;stroke-miterlimit:4;stroke-dasharray:none;stroke-opacity:1"
           d="m 420.57253,918.19271 q 5.25803,-2.25344 10.89163,-2.25344 6.38474,0 9.89009,3.88092 3.12978,3.38016 3.12978,8.4504 l 0,17.71454 q 0,1.18932 -0.87634,2.00306 -0.81374,0.81374 -2.00306,0.81374 -1.18931,0 -2.00305,-0.81374 -0.81375,-0.81374 -0.81375,-2.00306 l 0,-1.62748 q -1.69008,1.75267 -4.56947,3.25496 -2.8168,1.5023 -7.19849,1.5023 -4.31909,0 -7.19849,-2.50382 -3.00458,-2.62902 -3.00458,-6.88551 0,-4.63208 3.50535,-7.26109 3.81833,-2.87939 10.89162,-2.87939 l 7.57406,0 0,-0.50077 q 0,-4.1939 -2.06565,-5.94658 -2.06565,-1.81527 -6.32215,-1.81527 -3.63054,0 -8.32521,1.5023 -0.50076,0.12519 -1.12672,0.12519 -0.62595,0 -1.3145,-0.62596 -0.68856,-0.68855 -0.68856,-2.06565 0,-1.3771 1.62749,-2.06565 z m 1.94046,20.90691 q 0,5.00764 6.63513,5.00764 2.94199,0 5.44581,-1.43969 2.56642,-1.4397 4.1939,-3.25497 l 0,-5.25803 -6.82291,0 q -4.44428,0 -6.94811,1.12672 -2.50382,1.12672 -2.50382,3.81833 z" />
        <path
           id="path8868"
           style="font-style:normal;font-variant:normal;font-weight:normal;font-stretch:normal;line-height:93.99999976%;font-family:'Varela Round';-inkscape-font-specification:'Varela Round';text-align:center;text-anchor:middle;fill:#333333;fill-opacity:1;stroke:#333333;stroke-width:12.00000191;stroke-linecap:round;stroke-linejoin:round;stroke-miterlimit:4;stroke-dasharray:none;stroke-opacity:1"
           d="m 459.80039,920.69653 q 4.63207,-4.75726 10.70384,-4.75726 6.07176,0 10.39086,4.31909 4.75726,4.75726 4.75726,12.26873 0,7.63665 -4.75726,12.33132 -4.38169,4.2565 -10.45346,4.2565 -6.00917,0 -10.64124,-4.75726 l 0,1.62748 q 0,1.18932 -0.81375,2.00306 -0.81374,0.81374 -2.06565,0.81374 -1.18931,0 -2.00306,-0.81374 -0.81374,-0.81374 -0.81374,-2.00306 l 0,-40.62451 q 0,-1.25191 0.81374,-2.06565 0.81375,-0.81375 2.00306,-0.81375 1.25191,0 2.06565,0.81375 0.81375,0.81374 0.81375,2.06565 l 0,15.33591 z m 0,18.40309 q 4.25649,4.69467 9.89009,4.69467 7.1359,0 9.51453,-6.38475 0.75114,-2.12825 0.75114,-4.88245 0,-5.38322 -2.87939,-8.4504 -2.75421,-2.8168 -7.38628,-2.8168 -5.6336,0 -9.89009,4.69466 l 0,13.14507 z" />
        <path
           id="path8870"
           style="font-style:normal;font-variant:normal;font-weight:normal;font-stretch:normal;line-height:93.99999976%;font-family:'Varela Round';-inkscape-font-specification:'Varela Round';text-align:center;text-anchor:middle;fill:#333333;fill-opacity:1;stroke:#333333;stroke-width:12.00000191;stroke-linecap:round;stroke-linejoin:round;stroke-miterlimit:4;stroke-dasharray:none;stroke-opacity:1"
           d="m 507.67717,915.93927 q 7.26109,0 11.64278,4.56947 4.38168,4.63207 4.38168,12.01835 0,7.38627 -4.38168,12.01834 -4.38169,4.56948 -11.64278,4.56948 -7.32368,0 -11.64277,-4.56948 -4.38169,-4.56947 -4.38169,-12.01834 0,-7.44887 4.38169,-12.01835 4.31909,-4.56947 11.64277,-4.56947 z m -7.0107,25.41379 q 1.5023,1.31451 3.31757,1.94046 1.87786,0.62596 3.63054,0.62596 1.81527,0 3.63054,-0.62596 1.87787,-0.62595 3.38016,-1.94046 3.38016,-3.06718 3.38016,-8.88857 0,-5.6336 -3.38016,-8.76338 -2.8168,-2.56641 -6.94811,-2.56641 -6.76032,0 -9.38933,6.07177 -0.93893,2.19084 -0.93893,5.32062 0,3.06718 0.93893,5.25802 0.93893,2.19085 2.37863,3.56795 z" />
        <path
           id="path8872"
           style="font-style:normal;font-variant:normal;font-weight:normal;font-stretch:normal;line-height:93.99999976%;font-family:'Varela Round';-inkscape-font-specification:'Varela Round';text-align:center;text-anchor:middle;fill:#333333;fill-opacity:1;stroke:#333333;stroke-width:12.00000191;stroke-linecap:round;stroke-linejoin:round;stroke-miterlimit:4;stroke-dasharray:none;stroke-opacity:1"
           d="m 537.31128,921.82325 q 4.38169,-5.88398 9.8275,-5.88398 l 0.31298,0 q 1.18932,0 1.94046,0.81374 0.81374,0.81374 0.81374,2.06565 0,1.18932 -0.81374,1.94046 -0.81374,0.68855 -2.06565,0.68855 l -0.31298,0 q -3.12978,0 -5.6336,1.56489 -2.44122,1.5023 -4.06871,3.94352 l 0,19.02905 q 0,1.18932 -0.87634,2.00306 -0.81374,0.81374 -2.00305,0.81374 -1.18932,0 -2.00306,-0.81374 -0.81374,-0.81374 -0.81374,-2.00306 l 0,-26.85349 q 0,-1.18932 0.81374,-2.00306 0.81374,-0.87634 2.00306,-0.87634 1.18931,0 2.00305,0.87634 0.87634,0.81374 0.87634,2.00306 l 0,2.69161 z" />
        <path
           id="path8874"
           style="font-style:normal;font-variant:normal;font-weight:normal;font-stretch:normal;line-height:93.99999976%;font-family:'Varela Round';-inkscape-font-specification:'Varela Round';text-align:center;text-anchor:middle;fill:#333333;fill-opacity:1;stroke:#333333;stroke-width:12.00000191;stroke-linecap:round;stroke-linejoin:round;stroke-miterlimit:4;stroke-dasharray:none;stroke-opacity:1"
           d="m 557.01128,918.19271 q 5.25803,-2.25344 10.89163,-2.25344 6.38474,0 9.89009,3.88092 3.12978,3.38016 3.12978,8.4504 l 0,17.71454 q 0,1.18932 -0.87634,2.00306 -0.81374,0.81374 -2.00305,0.81374 -1.18932,0 -2.00306,-0.81374 -0.81374,-0.81374 -0.81374,-2.00306 l 0,-1.62748 q -1.69008,1.75267 -4.56948,3.25496 -2.8168,1.5023 -7.19849,1.5023 -4.31909,0 -7.19849,-2.50382 -3.00458,-2.62902 -3.00458,-6.88551 0,-4.63208 3.50535,-7.26109 3.81833,-2.87939 10.89162,-2.87939 l 7.57407,0 0,-0.50077 q 0,-4.1939 -2.06566,-5.94658 -2.06565,-1.81527 -6.32215,-1.81527 -3.63054,0 -8.32521,1.5023 -0.50076,0.12519 -1.12672,0.12519 -0.62595,0 -1.3145,-0.62596 -0.68855,-0.68855 -0.68855,-2.06565 0,-1.3771 1.62748,-2.06565 z m 1.94046,20.90691 q 0,5.00764 6.63513,5.00764 2.94199,0 5.44581,-1.43969 2.56642,-1.4397 4.19391,-3.25497 l 0,-5.25803 -6.82292,0 q -4.44428,0 -6.94811,1.12672 -2.50382,1.12672 -2.50382,3.81833 z" />
        <path
           id="path8876"
           style="font-style:normal;font-variant:normal;font-weight:normal;font-stretch:normal;line-height:93.99999976%;font-family:'Varela Round';-inkscape-font-specification:'Varela Round';text-align:center;text-anchor:middle;fill:#333333;fill-opacity:1;stroke:#333333;stroke-width:12.00000191;stroke-linecap:round;stroke-linejoin:round;stroke-miterlimit:4;stroke-dasharray:none;stroke-opacity:1"
           d="m 601.88008,944.10726 q 1.69008,0 2.37863,-0.25038 0.75115,-0.31298 1.56489,-0.31298 0.87634,0 1.56489,0.62596 0.68855,0.62596 0.68855,1.87787 0,1.25191 -1.25191,1.81527 -2.69161,1.25191 -4.63207,1.25191 -1.87787,0 -3.44276,-0.18779 -1.56488,-0.18779 -3.00458,-1.06412 -3.44276,-2.00306 -3.44276,-7.0107 l 0,-19.40463 -4.44428,0 q -1.18932,0 -1.18932,-1.18931 0,-0.56336 0.56336,-1.06413 l 8.513,-8.3252 q 0.56336,-0.56336 1.06412,-0.56336 0.50077,0 0.81374,0.37557 0.37558,0.37557 0.37558,0.87634 l 0,5.00764 7.07329,0 q 1.06413,0 1.75268,0.68855 0.68855,0.68855 0.68855,1.75268 0,1.06412 -0.68855,1.75267 -0.68855,0.68855 -1.75268,0.68855 l -7.07329,0 0,18.90386 q 0,2.37863 1.4397,3.25497 0.81374,0.50076 2.44122,0.50076 z" />
        <path
           id="path8878"
           style="font-style:normal;font-variant:normal;font-weight:normal;font-stretch:normal;line-height:93.99999976%;font-family:'Varela Round';-inkscape-font-specification:'Varela Round';text-align:center;text-anchor:middle;fill:#333333;fill-opacity:1;stroke:#333333;stroke-width:12.00000191;stroke-linecap:round;stroke-linejoin:round;stroke-miterlimit:4;stroke-dasharray:none;stroke-opacity:1"
           d="m 614.63338,919.13164 q 0,-1.25191 0.81374,-2.06565 0.81375,-0.81375 2.00306,-0.81375 1.25191,0 2.06566,0.81375 0.81374,0.81374 0.81374,2.06565 l 0,26.85349 q 0,1.18932 -0.81374,2.00306 -0.81375,0.81374 -2.06566,0.81374 -1.18931,0 -2.00306,-0.81374 -0.81374,-0.81374 -0.81374,-2.00306 l 0,-26.85349 z m 6.25956,-12.26873 q 0,1.31451 -0.93894,2.25344 -0.93893,0.93893 -2.25344,0.93893 l -0.37557,0 q -1.31451,0 -2.25344,-0.93893 -0.93893,-0.93893 -0.93893,-2.25344 l 0,-0.25038 q 0,-1.31451 0.93893,-2.25344 0.93893,-0.93893 2.25344,-0.93893 l 0.37557,0 q 1.31451,0 2.25344,0.93893 0.93894,0.93893 0.93894,2.25344 l 0,0.25038 z" />
        <path
           id="path8880"
           style="font-style:normal;font-variant:normal;font-weight:normal;font-stretch:normal;line-height:93.99999976%;font-family:'Varela Round';-inkscape-font-specification:'Varela Round';text-align:center;text-anchor:middle;fill:#333333;fill-opacity:1;stroke:#333333;stroke-width:12.00000191;stroke-linecap:round;stroke-linejoin:round;stroke-miterlimit:4;stroke-dasharray:none;stroke-opacity:1"
           d="m 651.74083,917.87973 q 0.75115,-1.62749 2.75421,-1.62749 1.00152,0 1.81527,0.87634 0.81374,0.81374 0.81374,1.56489 0,1.00153 -0.31298,1.75268 l -10.89162,26.03975 q -0.43817,0.93893 -1.37711,1.62748 -0.87633,0.68855 -2.06565,0.68855 l -0.62596,0 q -1.18931,0 -2.12824,-0.68855 -0.87634,-0.68855 -1.31451,-1.62748 l -10.89163,-26.03975 q -0.31297,-0.75115 -0.31297,-1.62749 0,-0.87634 0.81374,-1.69008 0.81374,-0.87634 1.81527,-0.87634 2.00306,0 2.7542,1.62749 l 9.57712,24.28707 9.57712,-24.28707 z" />
        <path
           id="path8882"
           style="font-style:normal;font-variant:normal;font-weight:normal;font-stretch:normal;line-height:93.99999976%;font-family:'Varela Round';-inkscape-font-specification:'Varela Round';text-align:center;text-anchor:middle;fill:#333333;fill-opacity:1;stroke:#333333;stroke-width:12.00000191;stroke-linecap:round;stroke-linejoin:round;stroke-miterlimit:4;stroke-dasharray:none;stroke-opacity:1"
           d="m 677.24752,915.93927 q 7.26108,0 11.64277,4.56947 4.38169,4.63207 4.38169,12.01835 0,7.38627 -4.38169,12.01834 -4.38169,4.56948 -11.64277,4.56948 -7.32368,0 -11.64278,-4.56948 -4.38168,-4.56947 -4.38168,-12.01834 0,-7.44887 4.38168,-12.01835 4.3191,-4.56947 11.64278,-4.56947 z m -7.01071,25.41379 q 1.5023,1.31451 3.31757,1.94046 1.87787,0.62596 3.63054,0.62596 1.81527,0 3.63054,-0.62596 1.87787,-0.62595 3.38016,-1.94046 3.38016,-3.06718 3.38016,-8.88857 0,-5.6336 -3.38016,-8.76338 -2.8168,-2.56641 -6.9481,-2.56641 -6.76032,0 -9.38934,6.07177 -0.93893,2.19084 -0.93893,5.32062 0,3.06718 0.93893,5.25802 0.93894,2.19085 2.37863,3.56795 z" />
      </g>
      <g
         id="text3888-3-5-0-5-7-1-2-5-7-4-6"
         style="font-style:normal;font-variant:normal;font-weight:normal;font-stretch:normal;font-size:62.59555054px;line-height:93.99999976%;font-family:'Varela Round';-inkscape-font-specification:'Varela Round';text-align:center;letter-spacing:0px;word-spacing:0px;text-anchor:middle;fill:#ffffff;fill-opacity:1;stroke:none">
        <path
           id="path8885"
           style="font-style:normal;font-variant:normal;font-weight:normal;font-stretch:normal;line-height:93.99999976%;font-family:'Varela Round';-inkscape-font-specification:'Varela Round';text-align:center;text-anchor:middle;fill:#ffffff;fill-opacity:1"
           d="m 69.263798,904.48428 q 1.69008,0 2.879395,1.25191 1.189316,1.18932 1.189316,2.8794 l 0,37.36954 q 0,1.18932 -0.813743,2.00306 -0.813742,0.81374 -2.003057,0.81374 -1.189316,0 -2.065653,-0.81374 -0.813743,-0.81374 -0.813743,-2.00306 l 0,-35.55427 -14.459572,35.74206 q -0.500764,1.18931 -1.564888,1.94046 -1.064125,0.68855 -2.441227,0.68855 -1.377102,0 -2.441226,-0.68855 -1.064125,-0.75115 -1.564889,-1.94046 l -14.459572,-35.74206 0,35.55427 q 0,1.18932 -0.876338,2.00306 -0.813742,0.81374 -2.003058,0.81374 -1.189315,0 -2.003057,-0.81374 -0.813742,-0.81374 -0.813742,-2.00306 l 0,-37.36954 q 0,-1.69008 1.189315,-2.8794 1.189315,-1.25191 2.879395,-1.25191 l 2.065653,0 q 1.251911,0 2.25344,0.75115 1.064125,0.75114 1.564889,1.87786 l 14.20919,35.42909 14.20919,-35.42909 q 0.500764,-1.12672 1.502293,-1.87786 1.064125,-0.75115 2.316036,-0.75115 l 2.065653,0 z" />
        <path
           id="path8887"
           style="font-style:normal;font-variant:normal;font-weight:normal;font-stretch:normal;line-height:93.99999976%;font-family:'Varela Round';-inkscape-font-specification:'Varela Round';text-align:center;text-anchor:middle;fill:#ffffff;fill-opacity:1"
           d="m 84.854981,918.19271 q 5.258026,-2.25344 10.891626,-2.25344 6.384743,0 9.890093,3.88092 3.12978,3.38016 3.12978,8.4504 l 0,17.71454 q 0,1.18932 -0.87634,2.00306 -0.81374,0.81374 -2.00305,0.81374 -1.18932,0 -2.00306,-0.81374 -0.81374,-0.81374 -0.81374,-2.00306 l 0,-1.62748 q -1.69008,1.75267 -4.569479,3.25496 -2.8168,1.5023 -7.198488,1.5023 -4.319093,0 -7.198489,-2.50382 -3.004586,-2.62902 -3.004586,-6.88551 0,-4.63208 3.505351,-7.26109 3.818328,-2.87939 10.891625,-2.87939 l 7.574066,0 0,-0.50077 q 0,-4.1939 -2.06566,-5.94658 -2.06565,-1.81527 -6.322148,-1.81527 -3.630542,0 -8.325208,1.5023 -0.500764,0.12519 -1.12672,0.12519 -0.625955,0 -1.314506,-0.62596 -0.688551,-0.68855 -0.688551,-2.06565 0,-1.3771 1.627484,-2.06565 z m 1.940462,20.90691 q 0,5.00764 6.635128,5.00764 2.941991,0 5.445813,-1.43969 2.566416,-1.4397 4.193906,-3.25497 l 0,-5.25803 -6.822919,0 q -4.444284,0 -6.948106,1.12672 -2.503822,1.12672 -2.503822,3.81833 z" />
        <path
           id="path8889"
           style="font-style:normal;font-variant:normal;font-weight:normal;font-stretch:normal;line-height:93.99999976%;font-family:'Varela Round';-inkscape-font-specification:'Varela Round';text-align:center;text-anchor:middle;fill:#ffffff;fill-opacity:1"
           d="m 124.08283,920.69653 q 4.63207,-4.75726 10.70384,-4.75726 6.07176,0 10.39086,4.31909 4.75726,4.75726 4.75726,12.26873 0,7.63665 -4.75726,12.33132 -4.38169,4.2565 -10.45346,4.2565 -6.00917,0 -10.64124,-4.75726 l 0,15.96186 q 0,1.25191 -0.81375,2.06565 -0.81374,0.81375 -2.06565,0.81375 -1.18931,0 -2.00306,-0.81375 -0.81374,-0.81374 -0.81374,-2.06565 l 0,-41.25047 q 0,-1.18931 0.81374,-2.00305 0.81375,-0.81375 2.00306,-0.81375 1.25191,0 2.06565,0.81375 0.81375,0.81374 0.81375,2.00305 l 0,1.62749 z m 0,18.40309 q 4.25649,4.69467 9.89009,4.69467 7.1359,0 9.51453,-6.38475 0.75114,-2.12825 0.75114,-4.88245 0,-5.38322 -2.87939,-8.4504 -2.75421,-2.8168 -7.38628,-2.8168 -5.6336,0 -9.89009,4.69466 l 0,13.14507 z" />
        <path
           id="path8891"
           style="font-style:normal;font-variant:normal;font-weight:normal;font-stretch:normal;line-height:93.99999976%;font-family:'Varela Round';-inkscape-font-specification:'Varela Round';text-align:center;text-anchor:middle;fill:#ffffff;fill-opacity:1"
           d="m 161.75655,934.53014 q 0.50077,4.2565 3.19238,6.76032 2.69161,2.50383 7.51146,2.50383 4.81986,0 8.07483,-1.62749 1.12672,-0.56336 1.94046,-0.56336 0.81374,0 1.56489,0.68855 0.75115,0.68855 0.75115,1.56489 0,1.62749 -1.37711,2.37863 -1.3145,0.68855 -2.37863,1.18932 -1.06412,0.50076 -2.31603,0.87634 -2.8168,0.81374 -6.50994,0.81374 -7.69925,0 -11.95575,-4.31909 -4.2565,-4.3191 -4.2565,-12.26873 0,-6.88551 3.56795,-11.45499 4.00612,-5.13283 11.39239,-5.13283 7.0107,0 11.07941,4.75726 3.81833,4.44428 3.81833,11.01682 0,1.18931 -0.81374,2.00305 -0.75115,0.81374 -2.06565,0.81374 l -21.2199,0 z m 9.20155,-13.77102 q -5.571,0 -8.13742,4.94505 -0.93893,1.75268 -1.06413,4.1939 l 18.46569,0 q -0.25038,-4.44428 -3.25497,-7.0107 -2.50382,-2.12825 -6.00917,-2.12825 z" />
        <path
           id="path8893"
           style="font-style:normal;font-variant:normal;font-weight:normal;font-stretch:normal;line-height:93.99999976%;font-family:'Varela Round';-inkscape-font-specification:'Varela Round';text-align:center;text-anchor:middle;fill:#ffffff;fill-opacity:1"
           d="m 194.76397,918.19271 q 5.25802,-2.25344 10.89162,-2.25344 6.38475,0 9.8901,3.88092 3.12978,3.38016 3.12978,8.4504 l 0,17.71454 q 0,1.18932 -0.87634,2.00306 -0.81374,0.81374 -2.00306,0.81374 -1.18931,0 -2.00306,-0.81374 -0.81374,-0.81374 -0.81374,-2.00306 l 0,-1.62748 q -1.69008,1.75267 -4.56947,3.25496 -2.8168,1.5023 -7.19849,1.5023 -4.3191,0 -7.19849,-2.50382 -3.00459,-2.62902 -3.00459,-6.88551 0,-4.63208 3.50535,-7.26109 3.81833,-2.87939 10.89163,-2.87939 l 7.57406,0 0,-0.50077 q 0,-4.1939 -2.06565,-5.94658 -2.06566,-1.81527 -6.32215,-1.81527 -3.63054,0 -8.32521,1.5023 -0.50077,0.12519 -1.12672,0.12519 -0.62596,0 -1.31451,-0.62596 -0.68855,-0.68855 -0.68855,-2.06565 0,-1.3771 1.62749,-2.06565 z m 1.94046,20.90691 q 0,5.00764 6.63513,5.00764 2.94199,0 5.44581,-1.43969 2.56642,-1.4397 4.1939,-3.25497 l 0,-5.25803 -6.82291,0 q -4.44429,0 -6.94811,1.12672 -2.50382,1.12672 -2.50382,3.81833 z" />
        <path
           id="path8895"
           style="font-style:normal;font-variant:normal;font-weight:normal;font-stretch:normal;line-height:93.99999976%;font-family:'Varela Round';-inkscape-font-specification:'Varela Round';text-align:center;text-anchor:middle;fill:#ffffff;fill-opacity:1"
           d="m 252.20713,944.35765 q -4.63207,4.75726 -10.70384,4.75726 -6.00917,0 -10.39086,-4.2565 -4.75726,-4.69467 -4.75726,-12.33132 0,-7.51147 4.75726,-12.26873 4.31909,-4.31909 10.39086,-4.31909 6.07177,0 10.70384,4.75726 l 0,-15.33591 q 0,-1.25191 0.81374,-2.06565 0.81374,-0.81375 2.00306,-0.81375 1.25191,0 2.06565,0.81375 0.81374,0.81374 0.81374,2.06565 l 0,40.62451 q 0,1.18932 -0.81374,2.00306 -0.81374,0.81374 -2.06565,0.81374 -1.18932,0 -2.00306,-0.81374 -0.81374,-0.81374 -0.81374,-2.00306 l 0,-1.62748 z m 0,-18.4031 q -4.2565,-4.69466 -9.8901,-4.69466 -7.13589,0 -9.45193,6.38474 -0.81374,2.12825 -0.81374,4.88246 0,5.38321 2.94199,8.4504 2.69161,2.8168 7.32368,2.8168 5.6336,0 9.8901,-4.69467 l 0,-13.14507 z" />
        <path
           id="path8897"
           style="font-style:normal;font-variant:normal;font-weight:normal;font-stretch:normal;line-height:93.99999976%;font-family:'Varela Round';-inkscape-font-specification:'Varela Round';text-align:center;text-anchor:middle;fill:#ffffff;fill-opacity:1"
           d="m 281.86861,915.93927 q 7.26108,0 11.64277,4.56947 4.38169,4.63207 4.38169,12.01835 0,7.38627 -4.38169,12.01834 -4.38169,4.56948 -11.64277,4.56948 -7.32368,0 -11.64277,-4.56948 -4.38169,-4.56947 -4.38169,-12.01834 0,-7.44887 4.38169,-12.01835 4.31909,-4.56947 11.64277,-4.56947 z m -7.0107,25.41379 q 1.50229,1.31451 3.31756,1.94046 1.87787,0.62596 3.63054,0.62596 1.81528,0 3.63055,-0.62596 1.87786,-0.62595 3.38016,-1.94046 3.38016,-3.06718 3.38016,-8.88857 0,-5.6336 -3.38016,-8.76338 -2.8168,-2.56641 -6.94811,-2.56641 -6.76032,0 -9.38933,6.07177 -0.93894,2.19084 -0.93894,5.32062 0,3.06718 0.93894,5.25802 0.93893,2.19085 2.37863,3.56795 z" />
        <path
           id="path8899"
           style="font-style:normal;font-variant:normal;font-weight:normal;font-stretch:normal;line-height:93.99999976%;font-family:'Varela Round';-inkscape-font-specification:'Varela Round';text-align:center;text-anchor:middle;fill:#ffffff;fill-opacity:1"
           d="m 354.55378,940.7271 q 0.50076,-0.25038 1.3771,-0.25038 0.93893,0 1.56489,0.75115 0.68855,0.68855 0.68855,1.62748 0,1.69008 -1.3771,2.37863 -2.94199,1.62749 -6.32215,2.75421 -3.31757,1.12672 -8.01224,1.12672 -4.63207,0 -8.63818,-1.5023 -4.00612,-1.56488 -6.94811,-4.50687 -6.25955,-6.13437 -6.25955,-16.46263 0,-10.32827 6.25955,-16.46263 6.07177,-6.00918 15.64889,-6.00918 4.63207,0 7.94964,1.12672 3.38016,1.12672 5.13283,2.12825 1.81527,0.93893 2.19084,1.56489 0.37558,0.56336 0.37558,1.50229 0,0.87634 -0.68855,1.62749 -0.62596,0.68855 -1.56489,0.68855 -0.87634,0 -1.3771,-0.25038 -2.50383,-1.31451 -5.13284,-2.12825 -2.62901,-0.81374 -6.57253,-0.81374 -3.88093,0 -7.0733,1.3145 -3.12978,1.31451 -5.25803,3.63054 -4.1939,4.56948 -4.1939,12.08095 0,7.51146 4.1939,12.08094 4.56948,4.94505 12.58171,4.94505 3.69314,0 6.32215,-0.81375 2.62901,-0.81374 5.13284,-2.12825 z" />
        <path
           id="path8901"
           style="font-style:normal;font-variant:normal;font-weight:normal;font-stretch:normal;line-height:93.99999976%;font-family:'Varela Round';-inkscape-font-specification:'Varela Round';text-align:center;text-anchor:middle;fill:#ffffff;fill-opacity:1"
           d="m 378.81835,915.93927 q 7.26108,0 11.64277,4.56947 4.38169,4.63207 4.38169,12.01835 0,7.38627 -4.38169,12.01834 -4.38169,4.56948 -11.64277,4.56948 -7.32368,0 -11.64277,-4.56948 -4.38169,-4.56947 -4.38169,-12.01834 0,-7.44887 4.38169,-12.01835 4.31909,-4.56947 11.64277,-4.56947 z m -7.0107,25.41379 q 1.50229,1.31451 3.31756,1.94046 1.87787,0.62596 3.63054,0.62596 1.81527,0 3.63054,-0.62596 1.87787,-0.62595 3.38016,-1.94046 3.38016,-3.06718 3.38016,-8.88857 0,-5.6336 -3.38016,-8.76338 -2.8168,-2.56641 -6.9481,-2.56641 -6.76032,0 -9.38933,6.07177 -0.93894,2.19084 -0.93894,5.32062 0,3.06718 0.93894,5.25802 0.93893,2.19085 2.37863,3.56795 z" />
        <path
           id="path8903"
           style="font-style:normal;font-variant:normal;font-weight:normal;font-stretch:normal;line-height:93.99999976%;font-family:'Varela Round';-inkscape-font-specification:'Varela Round';text-align:center;text-anchor:middle;fill:#ffffff;fill-opacity:1"
           d="m 403.25703,905.36062 q 0,-1.25191 0.81374,-2.06565 0.81374,-0.81375 2.00305,-0.81375 1.25192,0 2.06566,0.81375 0.81374,0.81374 0.81374,2.06565 l 0,40.62451 q 0,1.18932 -0.81374,2.00306 -0.81374,0.81374 -2.06566,0.81374 -1.18931,0 -2.00305,-0.81374 -0.81374,-0.81374 -0.81374,-2.00306 l 0,-40.62451 z" />
        <path
           id="path8905"
           style="font-style:normal;font-variant:normal;font-weight:normal;font-stretch:normal;line-height:93.99999976%;font-family:'Varela Round';-inkscape-font-specification:'Varela Round';text-align:center;text-anchor:middle;fill:#ffffff;fill-opacity:1"
           d="m 420.57253,918.19271 q 5.25803,-2.25344 10.89163,-2.25344 6.38474,0 9.89009,3.88092 3.12978,3.38016 3.12978,8.4504 l 0,17.71454 q 0,1.18932 -0.87634,2.00306 -0.81374,0.81374 -2.00306,0.81374 -1.18931,0 -2.00305,-0.81374 -0.81375,-0.81374 -0.81375,-2.00306 l 0,-1.62748 q -1.69008,1.75267 -4.56947,3.25496 -2.8168,1.5023 -7.19849,1.5023 -4.31909,0 -7.19849,-2.50382 -3.00458,-2.62902 -3.00458,-6.88551 0,-4.63208 3.50535,-7.26109 3.81833,-2.87939 10.89162,-2.87939 l 7.57406,0 0,-0.50077 q 0,-4.1939 -2.06565,-5.94658 -2.06565,-1.81527 -6.32215,-1.81527 -3.63054,0 -8.32521,1.5023 -0.50076,0.12519 -1.12672,0.12519 -0.62595,0 -1.3145,-0.62596 -0.68856,-0.68855 -0.68856,-2.06565 0,-1.3771 1.62749,-2.06565 z m 1.94046,20.90691 q 0,5.00764 6.63513,5.00764 2.94199,0 5.44581,-1.43969 2.56642,-1.4397 4.1939,-3.25497 l 0,-5.25803 -6.82291,0 q -4.44428,0 -6.94811,1.12672 -2.50382,1.12672 -2.50382,3.81833 z" />
        <path
           id="path8907"
           style="font-style:normal;font-variant:normal;font-weight:normal;font-stretch:normal;line-height:93.99999976%;font-family:'Varela Round';-inkscape-font-specification:'Varela Round';text-align:center;text-anchor:middle;fill:#ffffff;fill-opacity:1"
           d="m 459.80039,920.69653 q 4.63207,-4.75726 10.70384,-4.75726 6.07176,0 10.39086,4.31909 4.75726,4.75726 4.75726,12.26873 0,7.63665 -4.75726,12.33132 -4.38169,4.2565 -10.45346,4.2565 -6.00917,0 -10.64124,-4.75726 l 0,1.62748 q 0,1.18932 -0.81375,2.00306 -0.81374,0.81374 -2.06565,0.81374 -1.18931,0 -2.00306,-0.81374 -0.81374,-0.81374 -0.81374,-2.00306 l 0,-40.62451 q 0,-1.25191 0.81374,-2.06565 0.81375,-0.81375 2.00306,-0.81375 1.25191,0 2.06565,0.81375 0.81375,0.81374 0.81375,2.06565 l 0,15.33591 z m 0,18.40309 q 4.25649,4.69467 9.89009,4.69467 7.1359,0 9.51453,-6.38475 0.75114,-2.12825 0.75114,-4.88245 0,-5.38322 -2.87939,-8.4504 -2.75421,-2.8168 -7.38628,-2.8168 -5.6336,0 -9.89009,4.69466 l 0,13.14507 z" />
        <path
           id="path8909"
           style="font-style:normal;font-variant:normal;font-weight:normal;font-stretch:normal;line-height:93.99999976%;font-family:'Varela Round';-inkscape-font-specification:'Varela Round';text-align:center;text-anchor:middle;fill:#ffffff;fill-opacity:1"
           d="m 507.67717,915.93927 q 7.26109,0 11.64278,4.56947 4.38168,4.63207 4.38168,12.01835 0,7.38627 -4.38168,12.01834 -4.38169,4.56948 -11.64278,4.56948 -7.32368,0 -11.64277,-4.56948 -4.38169,-4.56947 -4.38169,-12.01834 0,-7.44887 4.38169,-12.01835 4.31909,-4.56947 11.64277,-4.56947 z m -7.0107,25.41379 q 1.5023,1.31451 3.31757,1.94046 1.87786,0.62596 3.63054,0.62596 1.81527,0 3.63054,-0.62596 1.87787,-0.62595 3.38016,-1.94046 3.38016,-3.06718 3.38016,-8.88857 0,-5.6336 -3.38016,-8.76338 -2.8168,-2.56641 -6.94811,-2.56641 -6.76032,0 -9.38933,6.07177 -0.93893,2.19084 -0.93893,5.32062 0,3.06718 0.93893,5.25802 0.93893,2.19085 2.37863,3.56795 z" />
        <path
           id="path8911"
           style="font-style:normal;font-variant:normal;font-weight:normal;font-stretch:normal;line-height:93.99999976%;font-family:'Varela Round';-inkscape-font-specification:'Varela Round';text-align:center;text-anchor:middle;fill:#ffffff;fill-opacity:1"
           d="m 537.31128,921.82325 q 4.38169,-5.88398 9.8275,-5.88398 l 0.31298,0 q 1.18932,0 1.94046,0.81374 0.81374,0.81374 0.81374,2.06565 0,1.18932 -0.81374,1.94046 -0.81374,0.68855 -2.06565,0.68855 l -0.31298,0 q -3.12978,0 -5.6336,1.56489 -2.44122,1.5023 -4.06871,3.94352 l 0,19.02905 q 0,1.18932 -0.87634,2.00306 -0.81374,0.81374 -2.00305,0.81374 -1.18932,0 -2.00306,-0.81374 -0.81374,-0.81374 -0.81374,-2.00306 l 0,-26.85349 q 0,-1.18932 0.81374,-2.00306 0.81374,-0.87634 2.00306,-0.87634 1.18931,0 2.00305,0.87634 0.87634,0.81374 0.87634,2.00306 l 0,2.69161 z" />
        <path
           id="path8913"
           style="font-style:normal;font-variant:normal;font-weight:normal;font-stretch:normal;line-height:93.99999976%;font-family:'Varela Round';-inkscape-font-specification:'Varela Round';text-align:center;text-anchor:middle;fill:#ffffff;fill-opacity:1"
           d="m 557.01128,918.19271 q 5.25803,-2.25344 10.89163,-2.25344 6.38474,0 9.89009,3.88092 3.12978,3.38016 3.12978,8.4504 l 0,17.71454 q 0,1.18932 -0.87634,2.00306 -0.81374,0.81374 -2.00305,0.81374 -1.18932,0 -2.00306,-0.81374 -0.81374,-0.81374 -0.81374,-2.00306 l 0,-1.62748 q -1.69008,1.75267 -4.56948,3.25496 -2.8168,1.5023 -7.19849,1.5023 -4.31909,0 -7.19849,-2.50382 -3.00458,-2.62902 -3.00458,-6.88551 0,-4.63208 3.50535,-7.26109 3.81833,-2.87939 10.89162,-2.87939 l 7.57407,0 0,-0.50077 q 0,-4.1939 -2.06566,-5.94658 -2.06565,-1.81527 -6.32215,-1.81527 -3.63054,0 -8.32521,1.5023 -0.50076,0.12519 -1.12672,0.12519 -0.62595,0 -1.3145,-0.62596 -0.68855,-0.68855 -0.68855,-2.06565 0,-1.3771 1.62748,-2.06565 z m 1.94046,20.90691 q 0,5.00764 6.63513,5.00764 2.94199,0 5.44581,-1.43969 2.56642,-1.4397 4.19391,-3.25497 l 0,-5.25803 -6.82292,0 q -4.44428,0 -6.94811,1.12672 -2.50382,1.12672 -2.50382,3.81833 z" />
        <path
           id="path8915"
           style="font-style:normal;font-variant:normal;font-weight:normal;font-stretch:normal;line-height:93.99999976%;font-family:'Varela Round';-inkscape-font-specification:'Varela Round';text-align:center;text-anchor:middle;fill:#ffffff;fill-opacity:1"
           d="m 601.88008,944.10726 q 1.69008,0 2.37863,-0.25038 0.75115,-0.31298 1.56489,-0.31298 0.87634,0 1.56489,0.62596 0.68855,0.62596 0.68855,1.87787 0,1.25191 -1.25191,1.81527 -2.69161,1.25191 -4.63207,1.25191 -1.87787,0 -3.44276,-0.18779 -1.56488,-0.18779 -3.00458,-1.06412 -3.44276,-2.00306 -3.44276,-7.0107 l 0,-19.40463 -4.44428,0 q -1.18932,0 -1.18932,-1.18931 0,-0.56336 0.56336,-1.06413 l 8.513,-8.3252 q 0.56336,-0.56336 1.06412,-0.56336 0.50077,0 0.81374,0.37557 0.37558,0.37557 0.37558,0.87634 l 0,5.00764 7.07329,0 q 1.06413,0 1.75268,0.68855 0.68855,0.68855 0.68855,1.75268 0,1.06412 -0.68855,1.75267 -0.68855,0.68855 -1.75268,0.68855 l -7.07329,0 0,18.90386 q 0,2.37863 1.4397,3.25497 0.81374,0.50076 2.44122,0.50076 z" />
        <path
           id="path8917"
           style="font-style:normal;font-variant:normal;font-weight:normal;font-stretch:normal;line-height:93.99999976%;font-family:'Varela Round';-inkscape-font-specification:'Varela Round';text-align:center;text-anchor:middle;fill:#ffffff;fill-opacity:1"
           d="m 614.63338,919.13164 q 0,-1.25191 0.81374,-2.06565 0.81375,-0.81375 2.00306,-0.81375 1.25191,0 2.06566,0.81375 0.81374,0.81374 0.81374,2.06565 l 0,26.85349 q 0,1.18932 -0.81374,2.00306 -0.81375,0.81374 -2.06566,0.81374 -1.18931,0 -2.00306,-0.81374 -0.81374,-0.81374 -0.81374,-2.00306 l 0,-26.85349 z m 6.25956,-12.26873 q 0,1.31451 -0.93894,2.25344 -0.93893,0.93893 -2.25344,0.93893 l -0.37557,0 q -1.31451,0 -2.25344,-0.93893 -0.93893,-0.93893 -0.93893,-2.25344 l 0,-0.25038 q 0,-1.31451 0.93893,-2.25344 0.93893,-0.93893 2.25344,-0.93893 l 0.37557,0 q 1.31451,0 2.25344,0.93893 0.93894,0.93893 0.93894,2.25344 l 0,0.25038 z" />
        <path
           id="path8919"
           style="font-style:normal;font-variant:normal;font-weight:normal;font-stretch:normal;line-height:93.99999976%;font-family:'Varela Round';-inkscape-font-specification:'Varela Round';text-align:center;text-anchor:middle;fill:#ffffff;fill-opacity:1"
           d="m 651.74083,917.87973 q 0.75115,-1.62749 2.75421,-1.62749 1.00152,0 1.81527,0.87634 0.81374,0.81374 0.81374,1.56489 0,1.00153 -0.31298,1.75268 l -10.89162,26.03975 q -0.43817,0.93893 -1.37711,1.62748 -0.87633,0.68855 -2.06565,0.68855 l -0.62596,0 q -1.18931,0 -2.12824,-0.68855 -0.87634,-0.68855 -1.31451,-1.62748 l -10.89163,-26.03975 q -0.31297,-0.75115 -0.31297,-1.62749 0,-0.87634 0.81374,-1.69008 0.81374,-0.87634 1.81527,-0.87634 2.00306,0 2.7542,1.62749 l 9.57712,24.28707 9.57712,-24.28707 z" />
        <path
           id="path8921"
           style="font-style:normal;font-variant:normal;font-weight:normal;font-stretch:normal;line-height:93.99999976%;font-family:'Varela Round';-inkscape-font-specification:'Varela Round';text-align:center;text-anchor:middle;fill:#ffffff;fill-opacity:1"
           d="m 677.24752,915.93927 q 7.26108,0 11.64277,4.56947 4.38169,4.63207 4.38169,12.01835 0,7.38627 -4.38169,12.01834 -4.38169,4.56948 -11.64277,4.56948 -7.32368,0 -11.64278,-4.56948 -4.38168,-4.56947 -4.38168,-12.01834 0,-7.44887 4.38168,-12.01835 4.3191,-4.56947 11.64278,-4.56947 z m -7.01071,25.41379 q 1.5023,1.31451 3.31757,1.94046 1.87787,0.62596 3.63054,0.62596 1.81527,0 3.63054,-0.62596 1.87787,-0.62595 3.38016,-1.94046 3.38016,-3.06718 3.38016,-8.88857 0,-5.6336 -3.38016,-8.76338 -2.8168,-2.56641 -6.9481,-2.56641 -6.76032,0 -9.38934,6.07177 -0.93893,2.19084 -0.93893,5.32062 0,3.06718 0.93893,5.25802 0.93894,2.19085 2.37863,3.56795 z" />
      </g>
    </g>
    <g
       style="fill:#333333;fill-opacity:1"
       transform="matrix(0.5377213,0,0,0.5377213,110.36895,396.04163)"
       id="g7546">
      <path
         style="fill:#333333;fill-opacity:1"
         id="path3369"
         d="m 430.63443,1067.193 c 8.4125,0.675 17.8125,2.9 22.875,10.3 4.2375,5.825 4.325,13.3375 3.7125,20.225 -0.0125,1.675 -2.1,2.3 -3.4625,2.35 -4.6,0.013 -9.2375,0.3375 -13.8125,-0.2375 -3.7375,-1.975 -0.8625,-7.475 -3.4625,-10.35 -1.325,-2.025 -3.7875,-2.525 -5.9,-3.275 -0.0875,-6.3375 -0.175,-12.675 0.05,-19.0125 z" />
      <path
         style="fill:#333333;fill-opacity:1"
         id="path3371"
         d="m 479.09692,1071.968 c 5.2125,-3.15 11.35,-4.15 17.3,-4.875 0.275,6.475 0.1375,12.95 0.15,19.4375 -4.0875,0.3625 -8.0375,3.55 -7.9,7.9125 -0.2625,12.075 0,24.1625 -0.1,36.25 0.15,3.7 -0.525,7.975 2.0875,11.0375 1.6625,1.525 3.875,2.2125 5.9125,3.1375 -0.025,6.15 0.0375,12.3 -0.025,18.4625 -7.3875,-0.088 -15.05,-1.9875 -20.8125,-6.8125 -4.4125,-3.9375 -7.0375,-9.8625 -7.0125,-15.775 0.0125,-16.6875 0.0125,-33.375 0,-50.0625 -0.3875,-7.5375 3.925,-14.95 10.4,-18.7125 z" />
      <path
         style="fill:#333333;fill-opacity:1"
         id="path3373"
         d="m 502.04692,1067.218 c 6.5125,0.625 13.3,1.6375 18.7875,5.4875 5.9875,3.8 9.375,10.8875 9.475,17.8875 -0.0125,15.8875 -0.05,31.7875 0.0125,47.6875 0.0875,5.9375 -1.4125,12.35 -5.75,16.675 -5.7,6.15 -14.4625,8.3375 -22.6,8.3375 0.1125,-6.0875 0.1,-12.175 -0.0125,-18.2375 1.975,-0.975 4.0625,-1.7875 5.825,-3.125 2.65,-2.575 2.625,-6.5 2.575,-9.9125 -0.15,-12.5125 0.1125,-25.0375 -0.1,-37.5375 -0.125,-4.5 -4.2125,-7.3625 -8.275,-8.15 0.075,-6.375 0.025,-12.7375 0.0625,-19.1125 z" />
      <path
         style="fill:#333333;fill-opacity:1"
         id="path3375"
         d="m 810.5719,1067.2055 c 8.975,0.6125 19.25,3.35 23.875,11.85 3.9375,6.4875 2.9125,14.2625 2.85,21.4875 -4.1875,1.9375 -8.925,1.0375 -13.3625,1.2375 -1.925,-0.1875 -4.475,0.25 -5.5875,-1.725 -0.7,-2.925 -0.2875,-5.9875 -1.0375,-8.875 -0.9625,-2.975 -4.1375,-3.9625 -6.7625,-4.8875 0,-6.375 -0.0875,-12.7375 0.025,-19.0875 z" />
      <path
         style="fill:#333333;fill-opacity:1"
         id="path3377"
         d="m 133.0595,1068.318 c 14.0875,-0.3125 28.1875,0.037 42.2875,-0.15 2.125,0.1625 4.8875,-0.6625 6.1,1.7 0.65,5.7 0.1625,11.475 0.275,17.2125 -16.65,-0.2625 -33.35,0.6 -49.975,-0.4875 -0.65,-5.5625 -0.775,-11.2375 -0.2125,-16.8125 0.375,-0.3625 1.1375,-1.0875 1.525,-1.4625 z" />
      <path
         style="fill:#333333;fill-opacity:1"
         id="path3379"
         d="m 210.5845,1068.3555 c 5.6875,-0.425 11.39999,-0.025 17.09999,-0.15 0.85,1.3625 1.8875,2.6625 2.4125,4.225 6.325,25.5375 12.875,51.0125 19.3,76.525 0.925,4.1875 2.65,8.3625 2.2625,12.7375 -5.5875,1.875 -12.125,0.7 -18.0625,0.7125 -3.825,-4.825 -3.4875,-11.7125 -5.325,-17.425 -4.6,-0.075 -9.19999,-0.087 -13.79999,-0.025 1,-5.9625 2.8625,-11.725 3.8625,-17.675 1.89999,-0.25 3.81249,-0.45 5.73749,-0.625 -3.4625,-11.3 -4.025,-23.175 -5.62499,-34.8125 -1.3125,22.3 -7.875,43.7375 -12.725,65.425 -0.575,1.75 -0.875,3.9375 -2.525,5.05 -5.5,0.6125 -11.0625,0.1875 -16.5875,0.1875 -1.05,-3.95 0.5375,-7.7875 1.4875,-11.55 6.425,-25.6 13.0375,-51.175 19.3625,-76.8 0.6125,-2.125 1.05,-4.6 3.125,-5.8 z" />
      <path
         style="fill:#333333;fill-opacity:1"
         id="path3381"
         d="m 260.29699,1073.143 c 0.0375,-1.85 0.0375,-4.9625 2.6625,-4.8125 5.75,-0.35 11.525,-0.038 17.2875,-0.1 0.1125,26.6625 -0.025,53.3125 0.05,79.9625 0,4.75 0.25,9.55 -0.6,14.25 -6.2375,0.225 -12.475,0.3 -18.7,-0.1 -0.4125,-2.1625 -0.75,-4.35 -0.725,-6.5375 0.0625,-27.5625 0.025,-55.1125 0.025,-82.6625 z" />
      <path
         style="fill:#333333;fill-opacity:1"
         id="path3383"
         d="m 285.90949,1068.1805 c 10.9875,-0.4375 24.175,1.1 30.9125,10.9625 4.2375,5.45 3.5,12.6 3.4875,19.0625 -0.1625,5.275 0.7625,10.95 -1.8375,15.825 -2.0125,4.6625 -6.05,7.9625 -10.25,10.6 3.6375,10.7 7.3875,21.3625 11.0875,32.0375 0.775,1.775 0.55,3.725 0.375,5.6125 -6.075,0.25 -12.3375,0.9375 -18.325,-0.225 -4.525,-10.7375 -7.575,-22.1125 -11.7875,-32.975 -1.125,-0.825 -2.3375,-1.5 -3.6125,-2.05 0.025,-5.8875 0,-11.775 0.0125,-17.6625 4.725,-0.3125 10.4,-0.325 13.55,-4.525 1.8375,-4.1875 1.8875,-9.25 0.1,-13.425 -2.95,-4.5625 -8.875,-4.3875 -13.65,-4.4625 -0.025,-6.2625 0.05,-12.525 -0.0625,-18.775 z" />
      <path
         style="fill:#333333;fill-opacity:1"
         id="path3385"
         d="m 350.55948,1068.3555 c 5.275,-0.3375 10.5875,-0.225 15.8625,-0.062 2.175,-0.1125 3,2.3375 3.5875,4 6.0625,23.9 12.1,47.825 18.1375,71.7375 1.45,5.9875 3.4625,11.8875 3.8,18.0875 -6.0625,0.7 -12.2375,0.725 -18.3,0.2125 -0.325,-0.3125 -0.9875,-0.95 -1.3125,-1.2625 -2,-5.1625 -2.75,-10.7375 -4.0625,-16.1 -4.6125,-0.062 -9.225,-0.062 -13.8375,-0.025 1.05,-5.95 2.9375,-11.7 3.8625,-17.675 1.8875,-0.2 3.775,-0.375 5.675,-0.5375 -3.2875,-11.4 -3.8875,-23.275 -5.6375,-34.9375 -0.8375,17.15 -4.9375,33.8625 -9.1,50.45 -1.7375,6.675 -2.75,13.575 -5.2125,20.05 -5.92499,0.45 -11.89999,0.475 -17.82499,0.013 -0.025,-1.775 0.0875,-3.525 0.35,-5.25 6.975,-27.6125 14.03749,-55.2125 20.89999,-82.8625 0.5625,-2.1625 1.1375,-4.5125 3.1125,-5.8375 z" />
      <path
         style="fill:#333333;fill-opacity:1"
         id="path3387"
         d="m 404.99693,1074.1055 c 5.425,-5.0125 13.075,-6.4125 20.2125,-6.775 -0.125,6.275 0.075,12.5625 -0.1125,18.85 -4.4625,0.9125 -7.2625,5.0375 -7.2,9.475 -0.0375,13.325 -0.1125,26.675 0.0625,40.0125 0.1125,4.45 2.8875,8.1125 7.225,9.2625 0.025,6.125 -0.05,12.2625 0,18.4 -7.8625,-0.062 -16.3625,-2.1 -21.78745,-8.1625 -3.9125,-4.1875 -5.125,-10.1125 -5.225,-15.6625 0.0125,-16.2875 0,-32.575 0,-48.85 0.05,-6.1 2.1,-12.4625 6.82495,-16.55 z" />
      <path
         style="fill:#333333;fill-opacity:1"
         id="path3389"
         d="m 541.14692,1068.8555 c 3.825,-0.875 7.7625,-0.675 11.6625,-0.6625 12.5,0.075 24.9875,-0.075 37.48749,0.075 1.9,6.075 0.675,12.5625 0.9,18.825 -14.07499,0.025 -28.13749,-0.038 -42.19999,0.025 -2.625,0.025 -5.2375,-0.2625 -7.8125,-0.6625 -0.4625,-5.8625 -0.45,-11.75 -0.0375,-17.6 z" />
      <path
         style="fill:#333333;fill-opacity:1"
         id="path3391"
         d="m 617.68441,1071.9805 c 0.3125,-1.95 1.7375,-3.925 3.9375,-3.725 5.25,-0.037 10.5625,-0.4 15.7875,0.275 1.8125,1.3875 2.05,3.85 2.725,5.9 4.9375,19.325 9.7375,38.675 14.7125,58 2.15,9.875 5.475,19.5125 6.95,29.5375 -6.05,1.05 -12.2625,0.7375 -18.35,0.425 -4.4,-4.55 -3.325,-11.9125 -5.85,-17.4875 -4.55,0.025 -9.1,0.012 -13.65,-0.013 1.3,-5.9375 2.85,-11.8125 4.1375,-17.7375 1.7375,-0.1875 3.4875,-0.3625 5.25,-0.5 -2.45,-11.4375 -4.3625,-23 -4.775,-34.7 -1.8375,9.4625 -2.2875,19.1375 -4.5125,28.5375 -3.0375,12.5 -5.9875,25.0375 -8.9125,37.5875 -0.55,1.85 -1.05,4.65 -3.6125,4.3875 -5.35,0.2 -10.7625,0.4875 -16.05,-0.4375 0.3375,-5.2625 2.075,-10.3 3.3125,-15.4 6.3875,-24.8625 12.5375,-49.7875 18.9,-74.65 z" />
      <path
         style="fill:#333333;fill-opacity:1"
         id="path3393"
         d="m 731.7969,1068.3555 c 5.25,-0.2875 10.5625,-0.325 15.825,0.038 2.5375,0.275 2.75,3.15 3.45,5.0875 7.2,27.9625 14.1125,56 21.275,83.9625 0.55,1.625 0.1875,3.3375 0.05,5.0125 -6.275,0.2 -12.5625,0.3125 -18.825,-0.125 -2.2875,-5.6125 -2.8625,-11.7 -4.7625,-17.4125 -4.575,0.013 -9.15,0.013 -13.725,-0.062 1.3875,-5.9125 2.9125,-11.7875 4.2375,-17.7125 1.725,-0.175 3.45,-0.325 5.1875,-0.475 -2.2375,-10.8 -4.0875,-21.7 -4.7125,-32.7125 -2.25,7.6625 -2.0625,15.775 -3.9375,23.525 -3.0375,13.5625 -6.3875,27.0625 -9.525,40.6125 -0.55,1.575 -0.725,4.1125 -2.875,4.275 -5.4875,0.525 -11.02499,0.2125 -16.51249,0.025 -0.05,-1.5875 -0.2625,-3.2 0.2375,-4.725 7.14999,-28.05 14.16249,-56.125 21.32499,-84.175 0.55,-1.9625 0.95,-4.575 3.2875,-5.1375 z" />
      <path
         style="fill:#333333;fill-opacity:1"
         id="path3395"
         d="m 784.3469,1074.743 c 5.525,-5.275 13.4375,-7.125 20.8625,-7.4 -0.0875,6.3125 0,12.625 -0.075,18.9375 -4.5375,0.7375 -7.25,4.9625 -7.225,9.3625 -0.05,13.375 -0.125,26.75 0.025,40.1375 -0.1125,4.4625 3.1125,7.95 7.2125,9.2375 0.0625,6.1 -0.05,12.2 0.05,18.3125 -7.8375,-0.1 -16.4125,-2.025 -21.8,-8.15 -4.1625,-4.5375 -5.3375,-10.95 -5.25,-16.9 0.05,-15.8625 0.0125,-31.7125 0.025,-47.5625 0.075,-5.8125 1.85,-11.8875 6.175,-15.975 z" />
      <path
         style="fill:#333333;fill-opacity:1"
         id="path3397"
         d="m 843.45939,1068.7555 c 6.8,-1.1 13.725,-0.3375 20.5875,-0.55 12.0875,0.1875 24.2,-0.4 36.2875,0.325 0.875,6.0125 0.875,12.175 0,18.2 -17.1,0.85 -34.25,0.088 -51.3625,0.4125 -1.85,-0.275 -5.2375,0.65 -5.6375,-1.9625 -0.7125,-5.425 -0.45,-10.9875 0.125,-16.425 z" />
      <path
         style="fill:#333333;fill-opacity:1"
         id="path3399"
         d="m 908.92189,1068.543 c 6.3,-0.525 12.6625,-0.5125 18.975,-0.037 1.025,25.6875 0.1625,51.475 0.4375,77.2 -0.3125,5.6 0.875,11.3875 -0.9125,16.825 -6.2375,0 -12.5,0.4125 -18.7,-0.4125 -0.35,-20.875 -0.05,-41.775 -0.15,-62.6625 0.1875,-10.3 -0.4,-20.6375 0.35,-30.9125 z" />
      <path
         style="fill:#333333;fill-opacity:1"
         id="path3401"
         d="m 936.69689,1068.493 c 6.1125,-0.4125 12.275,-0.475 18.4125,-0.125 2.425,0.6625 2.45,3.6125 3.15,5.6 6.76249,29.5625 13.78749,59.075 20.42499,88.6625 -6.1625,-0.3125 -12.425,0.55 -18.52499,-0.5 -2.1375,-3 -2.5,-6.7625 -3.45,-10.2 -6.525,-25.9375 -13.1375,-51.85 -19.65,-77.7875 -0.5125,-1.8625 -0.4125,-3.775 -0.3625,-5.65 z" />
      <path
         style="fill:#333333;fill-opacity:1"
         id="path3403"
         d="m 982.65938,1070.6805 c 0.425,-1.7375 2.2125,-2.6375 3.9125,-2.45 5.05,-0.15 10.1,-0.012 15.16252,0.075 1.2125,4.1625 -0.75,8.2125 -1.6375,12.2375 -5.91252,23.825 -12.08752,47.5875 -17.92502,71.4375 -3.5625,-12.5375 -6.025,-25.3625 -9.1,-38.025 0.8875,-8.1125 3.5375,-15.9875 5.0625,-24.0125 1.625,-6.4 2.6125,-12.95 4.525,-19.2625 z" />
      <path
         style="fill:#333333;fill-opacity:1"
         id="path3405"
         d="m 1021.3094,1069.3055 c 3.4,-2.125 7.7375,-0.7125 11.55,-1.1375 3.125,0.075 8.1625,-0.8375 8.875,3.4375 6.9,26.2875 13.2875,52.7125 20.1125,79.025 0.725,3.9 2.6375,7.7125 1.8,11.775 -6.2125,0.175 -12.4875,0.5375 -18.6625,-0.15 -2.825,-5.3875 -2.9625,-11.675 -4.9375,-17.35 -4.575,0.05 -9.15,0.037 -13.7125,-0.05 1.425,-5.9125 2.825,-11.8375 4.225,-17.75 1.7,-0.125 3.4,-0.25 5.125,-0.35 -2.225,-10.8 -4.05,-21.6875 -4.6875,-32.7 -2.4125,7.9625 -2.0875,16.4125 -4.1375,24.4625 -3.125,13.1875 -6.1625,26.4125 -9.375,39.5875 -0.5375,1.525 -0.7875,4.05 -2.775,4.3375 -5.5125,0.35 -11.0375,0.1875 -16.53752,-0.062 -0.0625,-1.5875 -0.25,-3.1875 0.2375,-4.7 6.60002,-26.325 13.36252,-52.6125 19.91252,-78.95 0.9875,-3.1375 1.375,-6.525 2.9875,-9.425 z" />
      <path
         style="fill:#333333;fill-opacity:1"
         id="path3407"
         d="m 155.4095,1093.218 c 7.6125,-0.013 15.2375,-0.1125 22.85,0.037 -7.65,14.9 -15.45,29.7 -23.3,44.4875 -7.5125,-0.1 -15.025,0.025 -22.5375,-0.087 7.3375,-14.975 15.3875,-29.6 22.9875,-44.4375 z" />
      <path
         style="fill:#333333;fill-opacity:1"
         id="path3409"
         d="m 564.72192,1093.643 c 7.6375,-1.075 15.5375,-0.1625 23.275,-0.45 -7.7875,14.7875 -15.625,29.5625 -23.2375,44.45 -7.6375,0.062 -15.275,0.075 -22.9125,0.05 7.6125,-14.6875 15.2875,-29.35 22.875,-44.05 z" />
      <path
         style="fill:#333333;fill-opacity:1"
         id="path3411"
         d="m 861.94689,1093.2805 c 6.65,-0.125 13.3125,-0.125 19.975,0 -0.0875,18.725 -0.0125,37.45 -0.0375,56.175 -0.0625,4.3375 0.3875,8.7625 -0.7125,13.025 -6.0375,0.1875 -12.075,0.125 -18.1125,0.038 -1.6,-3.75 -0.925,-7.8625 -1.0375,-11.8 -0.0375,-19.15 0.1,-38.3 -0.075,-57.4375 z" />
      <path
         style="fill:#333333;fill-opacity:1"
         id="path3413"
         d="m 424.62193,1113.6805 c 0.1125,-1.75 1.5125,-2.875 3.2375,-2.5625 8.675,-0.1875 17.35,-0.15 26.025,-0.037 1.35,-0.038 3.575,0.575 3.3875,2.35 0.35,8.675 0,17.375 0.1375,26.075 0.1875,6.4125 -2.0875,13.175 -7.1125,17.3875 -5.3875,4.7625 -12.7875,6.2875 -19.7875,6.45 0.025,-6.125 0,-12.2375 0,-18.35 2.425,-1.25 5.6875,-2.1125 6.65,-4.9875 1.1625,-3.35 0.55,-6.975 0.7375,-10.4375 -4.225,0.062 -8.4625,0.088 -12.6875,-0.025 -1.1875,-5.1875 -1.1375,-10.6125 -0.5875,-15.8625 z" />
      <path
         style="fill:#333333;fill-opacity:1"
         id="path3415"
         d="m 818.6469,1127.9305 c 5.875,-1.55 12.2875,-0.775 18.3125,-0.2625 0.5875,8.15 1.68749,17.1375 -2.675,24.5125 -4.8875,8.075 -14.825,11.1375 -23.7875,11.1625 0.05,-6.125 0,-12.2375 0.0375,-18.35 2.4375,-1.225 5.6625,-2.1125 6.6375,-4.975 1.3875,-3.8875 -0.1,-8.25 1.475,-12.0875 z" />
      <path
         style="fill:#333333;fill-opacity:1"
         id="path3417"
         d="m 129.172,1143.768 c 16.225,0.062 32.4375,0.05 48.65,0.013 1.975,-0.088 3.925,0.3375 5.8375,0.825 0.2,5.225 0.575,10.5125 0.0125,15.725 -0.4125,2.8375 -3.8,2.0625 -5.85,2.2875 -16.025,-0.1875 -32.05,0.3125 -48.05,-0.275 -1.2875,-6.1125 -0.5625,-12.3875 -0.6,-18.575 z" />
      <path
         style="fill:#333333;fill-opacity:1"
         id="path3419"
         d="m 539.14692,1143.768 c 17.975,0.3875 36.0125,-0.6 53.94999,0.5125 0.125,5.9375 0.1625,11.8875 -0.0375,17.8375 -5.88749,0.8375 -11.84999,0.375 -17.76249,0.4875 -11.9125,-0.087 -23.825,0.1875 -35.725,-0.175 -0.9125,-6.1875 -0.5125,-12.45 -0.425,-18.6625 z" />
    </g>
  </g>
</svg>
